<?xml version="1.0" encoding="UTF-8" standalone="no"?>
<svg
   version="1.1"
   id="svg22"
   xml:space="preserve"
   width="512"
   height="512"
   sodipodi:docname="buttons.svg"
   inkscape:version="1.4 (e7c3feb1, 2024-10-09)"
   xmlns:inkscape="http://www.inkscape.org/namespaces/inkscape"
   xmlns:sodipodi="http://sodipodi.sourceforge.net/DTD/sodipodi-0.dtd"
   xmlns="http://www.w3.org/2000/svg"
   xmlns:svg="http://www.w3.org/2000/svg"><sodipodi:namedview
     id="namedview1"
     pagecolor="#505050"
     bordercolor="#eeeeee"
     borderopacity="1"
     inkscape:showpageshadow="0"
     inkscape:pageopacity="0"
     inkscape:pagecheckerboard="0"
     inkscape:deskcolor="#d1d1d1"
     inkscape:zoom="1.1072"
     inkscape:cx="187.41"
     inkscape:cy="269.15"
     inkscape:current-layer="d20"
     showgrid="false" /><defs
     id="defs22" /><g
     id="buttons"
     style="display:inline"
     transform="translate(1,1)"><g
       class="cog"
       stroke-width="0.92511"
       id="cog"
       style="display:inline"><path
         d="m 232.33,4.9732 c -27.24,2.4704 -53.82,8.9418 -78.16,19.6118 16.04,34.215 14.85,69.588 -7.02,86.055 -21.74,16.24 -56.417,8.24 -84.675,-16.467 -16.956,20.297 -30.619,43.257 -40.57,68.547 35.304,12.87 59.112,39.31 55.253,66.22 -3.862,27.02 -34.133,45.7 -71.6293,48.13 2.4356,27.03 9.3013,53.01 19.7633,77.13 18.591,-8.47 37.369,-11.6 53.339,-9.28 13.595,1.97 24.969,7.31 32.519,17.4 16.5,22.04 7.93,57.06 -17.515,85.48 20.365,17.16 44.055,30.73 69.505,40.82 12.87,-35.37 39.31,-59.15 66.29,-55.32 26.98,3.94 45.65,34.21 48.12,71.68 27.22,-2.44 53.8,-8.94 78.15,-19.61 -16.46,-34.44 -14.89,-70.51 7.14,-87.1 10.05,-7.54 23.55,-9.39 37.16,-7.42 15.77,2.32 32.56,10.67 47.55,23.78 16.8,-20.18 30.69,-43.26 40.58,-68.43 -35.3,-12.88 -59.11,-39.32 -55.25,-66.34 3.85,-26.91 34.09,-45.7 71.6,-48.13 -2.48,-27.03 -9.16,-52.89 -19.73,-77.13 -34.06,15.77 -69.59,13.8 -85.9,-8 C 382.48,124.79 391.28,90.346 416.27,62.047 395.89,44.986 372.17,31.324 346.73,21.315 333.85,56.596 307.42,80.488 280.45,76.66 253.46,72.717 234.78,42.481 232.33,4.9732 Z m 22.61,99.2868 c 83.1,0 150.71,67.62 150.71,150.78 0,83.04 -67.59,150.66 -150.71,150.66 -83.12,0 -150.7,-67.62 -150.7,-150.66 0,-83.16 67.59,-150.78 150.71,-150.78 z m 0,19.49 c -72.58,0 -131.2,58.68 -131.2,131.17 0,72.6 58.62,131.29 131.2,131.29 72.56,0 131.2,-58.69 131.2,-131.29 0,-72.49 -58.64,-131.17 -131.2,-131.17 z m 0,15.77 c 63.77,0 115.46,51.73 115.46,115.52 0,63.79 -51.69,115.51 -115.46,115.51 -63.77,0 -115.47,-51.72 -115.47,-115.51 0,-63.79 51.7,-115.52 115.47,-115.52 z"
         stroke-width="0.770238"
         id="path9" /></g><g
       class="halt"
       stroke-width="0.87342"
       id="halt"
       style="display:inline"><path
         d="M 403.07,114.28 V 225.77 H 377.86 V 50.526 c 0,-5.017 -1.99,-9.829 -5.54,-13.377 -3.55,-3.547 -8.36,-5.54 -13.38,-5.54 h -13.12 c -5.02,0 -9.83,1.993 -13.38,5.54 -3.55,3.548 -5.54,8.36 -5.54,13.377 V 225.77 H 301.81 V 23.913 c 0,-5.017 -1.99,-9.829 -5.54,-13.377 -3.55,-3.5474 -8.36,-5.5405 -13.38,-5.5405 h -13.12 c -5.02,0 -9.83,1.9931 -13.38,5.5405 -3.54,3.548 -5.54,8.36 -5.54,13.377 V 225.77 H 225.7 V 57.448 c 0,-5.018 -1.99,-9.83 -5.54,-13.377 -3.55,-3.548 -8.36,-5.541 -13.38,-5.541 h -13.11 c -5.02,0 -9.83,1.993 -13.38,5.541 -3.55,3.547 -5.54,8.359 -5.54,13.377 V 349.19 l -70.61,-56.54 c -10.095,-8.08 -24.615,-7.46 -33.984,1.46 l -6.155,5.87 c -9.765,9.31 -10.733,24.56 -2.222,35.03 L 174.76,473.93 c 15.08,19.6 38.4,31.08 63.12,31.07 h 67.28 C 387.37,505 454,438.36 454.02,356.16 V 114.28 c 0,-5.02 -2,-9.83 -5.54,-13.38 -3.55,-3.547 -8.36,-5.54 -13.38,-5.54 h -13.11 c -5.02,0 -9.83,1.993 -13.38,5.54 -3.55,3.55 -5.54,8.36 -5.54,13.38 z"
         stroke-width="0.76285"
         id="path10" /></g><g
       class="trash-can"
       stroke-width="0.6058"
       id="trash-can"
       style="display:inline"><path
         d="M 180.78,4.9625 V 70.066 H 79.223 V 109.13 H 430.78 V 70.066 H 329.22 V 4.9625 Z M 204.22,28.4 H 305.78 V 70.066 H 204.22 Z m -102.86,104.16 39.19,372.4 h 228.9 l 39.2,-372.4 z m 81.17,17.3 0.84,11.72 20.83,291.67 0.84,11.71 -23.38,1.68 -0.84,-11.72 -20.83,-291.66 -0.84,-11.72 z m 144.94,0 23.4,1.68 -0.83,11.72 -20.84,291.66 -0.83,11.72 -23.39,-1.68 0.84,-11.71 20.83,-291.67 z m -84.19,0.93 h 23.44 v 315.1 h -23.44 z"
         stroke-width="0.42406"
         id="path18"
         style="display:inline" /></g><g
       id="broom"
       style="display:inline"><path
         d="m 83.63,5 56.89,145.81 c 1.84,4.33 4.39,6.31 7.85,7.56 3.46,1.24 7.97,1.29 11.96,0.18 4,-1.12 7.26,-3.4 8.66,-5.31 1.39,-1.92 1.76,-2.78 0.55,-5.68 L 169.43,147.43 113.85,5 Z m 101.92,130.02 2.03,5.21 -0.11,-0.24 c 3.63,8.59 1.98,18.2 -2.74,24.7 -4.71,6.49 -11.65,10.53 -19.17,12.63 -7.53,2.1 -15.87,2.22 -23.79,-0.62 -7.93,-2.85 -15.33,-9.15 -19.21,-18.31 v -0.13 l -1.9,-4.87 c -33.88,21.43 -45.96,45.47 -38.27,74.55 1.34,5.07 3.7,13.38 6.45,23.95 80.48,-5.71 151.46,-25.83 216.24,-55.84 -11.18,-15.01 -24.39,-27.96 -41.42,-37.37 -22.18,-12.27 -51.57,-21.82 -78.11,-23.66 z m 130.47,77.4 c -66.56,31.18 -139.79,52.36 -222.49,58.66 2.2,9.4 4.42,19.79 6.44,30.84 96.97,-10.91 176.46,-28.38 235.67,-52.77 -6.21,-12.69 -12.54,-25.1 -19.62,-36.73 z m 28.18,54.29 c -61.78,25.72 -142.84,43.39 -241.05,54.46 9.75,66.32 8.57,147.85 -47.28,183.83 17.61,0 34.51,-0.16 50.79,-0.49 19.31,-27.65 33.84,-71.66 34.72,-93.23 8.95,18.18 3.56,64.2 -5.8,92.46 2.95,-0.1 5.87,-0.21 8.79,-0.32 12.8,-13.42 12.69,-30.98 15.93,-51.17 3.6,16.15 7.57,35.67 10.29,49.95 12.2,-0.66 23.97,-1.45 35.28,-2.36 17.73,-22.04 23.43,-53.68 20.16,-92.51 4.58,31.49 9.87,67.25 12.86,89.34 10.45,-1.17 20.48,-2.48 30.09,-3.91 5.45,-20.34 -4.44,-52.44 -2.24,-75.26 12.03,46.66 24.08,60.01 36.11,69.31 5.87,-1.21 11.54,-2.48 17.02,-3.82 -5.07,-15.1 1.71,-24.34 1.28,-43.27 6.12,20.55 15.83,29.17 26.44,35.51 7.05,-2.28 13.7,-4.69 20.02,-7.24 -11.4,-7.11 -10.95,-28.55 -13.4,-46.46 6.44,23.48 15.6,35.08 26.06,40.93 31.52,-14.94 52.7,-34.14 65.37,-58.08 -9.82,-4.13 -20.21,-14.07 -30.38,-21.74 14.3,8.09 25.63,11.48 35.04,11.83 1.42,-3.47 2.71,-7.02 3.84,-10.68 C 393.18,362.65 367.48,314.5 344.2,266.71 Z"
         fill-opacity="1"
         id="path1-1"
         style="display:inline" /></g><g
       id="monkey-wrench"
       style="display:inline"
       class="monkey-wrench"><path
         d="m 428.41,21.07 c -1.79,0 -3.31,0.18 -4.52,0.58 l -21.54,7.18 68.47,68.47 -24.23,24.23 22.71,22.71 29.53,-29.53 c 6.43,-6.44 7.53,-14.05 4.68,-24.79 C 500.67,79.18 493.13,66.5 483.25,55.19 473.35,43.9 461.17,33.92 449.92,27.78 c -8.43,-4.6 -16.15,-6.66 -21.51,-6.71 z m -68.13,65.63 -49.19,49.2 c 6.41,1.33 13.14,2.46 19.8,2.7 13.03,0.49 24.85,-1.93 34.69,-11.77 l 6.81,-6.82 18.89,18.88 0.11,0.11 5.26,5.26 10.6,-10.6 -46.93,-46.94 z m 72.68,48.45 -22.71,22.71 22.71,22.71 22.71,-22.71 z m -60.57,15.16 c -1.89,0 -3.79,0.75 -5.3,2.25 -3.01,3 -3.01,7.6 0,10.6 3.01,3.01 7.59,3.01 10.6,0 3.01,-3 3.01,-7.6 0,-10.6 -1.5,-1.5 -3.39,-2.25 -5.3,-2.25 z m -77.43,1.71 -30.07,30.07 100.13,100.12 c 2.06,-0.75 5.7,-2.65 9.91,-5.5 4.31,-2.95 9.25,-6.8 14.39,-11.21 -7.72,2.83 -16.2,2.12 -22.99,-4.67 l -36.34,-36.34 c -17.22,-17.23 4.54,-45.44 24.67,-44.05 1.79,0.12 3.57,0.49 5.3,1.11 -2.34,-1.22 -4.54,-2.81 -6.49,-4.76 -5.41,-5.41 -7.99,-12.65 -7.76,-19.81 -5.27,0.83 -10.5,1.08 -15.52,0.88 -13.85,-0.51 -25.97,-3.64 -35.23,-5.84 z m 100.89,18.7 c -1.19,2.19 -2.69,4.23 -4.53,6.06 -7.69,7.69 -19.07,9.68 -28.67,5.98 1.81,0.96 3.55,2.23 5.2,3.87 l 36.34,36.34 c 7.29,7.3 7.59,16.57 3.98,24.72 9.03,-9.3 17.24,-19 22.5,-26.73 2.86,-4.21 4.76,-7.85 5.51,-9.92 l -40.33,-40.33 z m -142.67,26.91 -28.04,46.74 4.32,20.67 18.6,3.54 38.03,-38.04 z m 99.59,2.1 c -4.02,0 -11.8,8.49 -9.15,11.13 l 36.34,36.34 c 3.03,3.03 13.63,-7.57 10.6,-10.6 l -36.34,-36.34 c -0.38,-0.37 -0.87,-0.54 -1.45,-0.53 z m -40.94,56.55 -5.3,5.3 c -7.95,7.95 -11.27,15.27 -12.04,20.67 -0.77,5.41 0.69,8.86 2.96,11.13 2.27,2.27 5.71,3.72 11.12,2.95 5.41,-0.77 12.72,-4.09 20.68,-12.03 l 5.3,-5.3 z M 209.14,262.06 31.985,439.23 c 5.18,1.65 10.04,4.51 14.12,8.59 4.08,4.08 6.94,8.95 8.59,14.12 L 231.58,285.06 213.22,281.56 Z M 21.115,456.68 c -4.09,0 -8.17,1.59 -11.35,4.77 -6.3502,6.35 -6.3502,16.36 0,22.71 6.35,6.36 16.36,6.36 22.71,0 6.35,-6.35 6.35,-16.36 0,-22.71 -3.18,-3.18 -7.27,-4.77 -11.36,-4.77 z"
         fill-opacity="1"
         id="path1-554"
         style="display:inline" /></g><g
       id="round-knobs"
       style="display:inline"
       class="round-knobs"><path
         d="m 254.91,48.21 -6.25,0.11 h -0.21 l -4.42,0.16 0.54,17.23 c -12.59,0.55 -24.98,2.11 -37.05,4.6 l -3.66,-17.04 -5.39,1.36 h -0.21 l -5.82,1.42 h -0.22 l -5.81,1.55 h -0.21 l -1.84,0.55 4.96,16.72 c -12.17,3.56 -23.91,8.06 -35.12,13.41 l -7.31,-15.7 -0.54,0.35 h -0.12 l -0.1,0.11 -5.28,2.6 h -0.22 l -5.17,2.74 -0.1,0.11 h -0.11 l -5.05,2.84 -0.12,0.11 h -0.11 l -1.08,0.65 8.85,14.91 c -11,6.46 -21.34,13.68 -31.14,21.76 l -10.77,-13.46 -0.33,0.11 -0.1,0.1 -0.11,0.11 -4.41,3.77 -0.11,0.11 -0.11,0.11 -4.27,3.88 -0.1,0.1 -0.12,0.11 -4.24,3.99 -0.1,0.1 -0.11,0.11 -1.02,0.97 12,12.28 c -8.98,8.72 -17.31,18.09 -24.84,28.22 L 53.9,148.6 l 0.13,0.32 -0.11,0.11 -0.11,0.11 -3.42,4.63 -0.11,0.1 -0.11,0.11 -3.3,4.74 -0.11,0.11 -0.11,0.11 -3.2,4.84 -0.11,0.11 -0.1,0.11 -0.86,1.4 14.92,9.26 c -6.63,10.56 -12.45,21.54 -17.37,33.07 l -15.64,-6.79 -0.42,0.43 v 0.22 l -2.22,5.49 -0.11,0.11 v 0.11 l -2.09,5.49 V 213 l -1.96,5.61 v 0.21 l -0.37,1.08 16.2,5.28 c -3.95,11.84 -6.96,24.01 -8.99,36.62 L 7.4,259 7,260.83 v 0.21 l -0.84,6.03 v 0.22 l -0.7,6.14 v 0.21 l -0.46,5.28 17.08,1.51 c -0.49,6.25 -0.75,12.38 -0.75,18.74 h 19.39 c 0,-118.48 95.81,-214.32 214.29,-214.32 118.47,0 214.33,95.84 214.33,214.32 h 19.39 c 0,-7 -0.33,-13.9 -0.96,-20.68 l 17.23,-1.51 -0.33,-3.34 v -0.21 l -0.75,-6.14 v -0.22 l -0.87,-6.03 v -0.21 l -0.65,-3.77 -17.01,2.9 c -2.05,-12.49 -5.16,-24.66 -9.16,-36.4 l 16.27,-5.71 -1.73,-4.85 v -0.1 l -0.11,-0.11 -2.04,-5.49 -0.11,-0.11 v -0.11 l -2.26,-5.49 v -0.11 l -0.11,-0.11 -0.97,-2.26 -15.83,7 c -4.96,-11.52 -10.88,-22.62 -17.56,-33.06 l 14.44,-9.48 -3.02,-4.63 -0.11,-0.11 -0.11,-0.11 -3.23,-4.74 -0.1,-0.11 -0.11,-0.1 -3.34,-4.63 -0.11,-0.11 -0.11,-0.11 -1.29,-1.83 -13.79,10.56 c -7.53,-9.91 -15.94,-19.28 -24.98,-27.9 l 11.74,-12.6 -3.88,-3.66 v -0.11 l -0.11,-0.11 -4.31,-3.88 -0.1,-0.11 -0.11,-0.1 -4.42,-3.67 -0.11,-0.1 -0.1,-0.11 -1.94,-1.61 -10.88,13.67 c -9.69,-7.86 -20.03,-14.96 -30.91,-21.1 l 8.51,-15.15 -4.53,-2.53 h -0.1 l -0.11,-0.1 -5.17,-2.74 h -0.22 l -5.26,-2.61 -0.12,-0.1 h -0.11 l -2.26,-1.06 -7.33,15.55 c -11.19,-5.26 -22.94,-9.67 -35,-13.14 l 4.52,-16.67 -5.81,-1.55 h -0.21 l -5.81,-1.41 h -0.23 l -5.8,-1.28 h -0.33 l -1.41,-0.27 -3.23,16.76 c -12.16,-2.42 -24.55,-3.87 -37.27,-4.32 l 0.54,-17.22 -2.46,-0.11 h -0.23 l -6.24,-0.11 h -0.11 z m 0.11,88.32 c -89.94,0 -162.64,72.71 -162.64,162.64 0,89.93 72.7,162.63 162.64,162.63 89.93,0 162.63,-72.7 162.63,-162.63 0,-60.32 -32.63,-112.88 -81.32,-140.88 l -45.11,90.26 -17.03,-9.48 44.7,-89.5 c -19.6,-8.4 -41.14,-13.04 -63.87,-13.04 z"
         fill-opacity="1"
         id="path1-88"
         style="display:inline" /></g><g
       id="settings-knobs"
       style="display:inline"
       class="settings-knobs"><path
         d="M 66.38,5 V 84.24 H 86.47 V 5 Z m 178.57,0 v 385.04 h 20.09 V 5 Z m 178.57,0 v 186.38 h 20.09 V 5 Z M 25.08,104.33 c -5.73,0 -10.04,4.35 -10.04,10.04 v 31.25 c 0,5.7 4.31,10.05 10.04,10.05 h 102.68 c 5.7,0 10.05,-4.35 10.05,-10.05 v -31.25 c 0,-5.69 -4.35,-10.04 -10.05,-10.04 z m 41.3,71.43 V 505 H 86.47 V 175.76 Z m 315.85,35.71 c -5.69,0 -10.05,4.36 -10.05,10.05 v 31.25 c 0,5.69 4.36,10.04 10.05,10.04 h 102.68 c 5.69,0 10.04,-4.35 10.04,-10.04 v -31.25 c 0,-5.69 -4.35,-10.05 -10.04,-10.05 z m 41.29,71.43 V 505 h 20.09 V 282.9 Z M 203.66,410.13 c -5.7,0 -10.05,4.36 -10.05,10.05 v 31.25 c 0,5.69 4.35,10.04 10.05,10.04 h 102.67 c 5.7,0 10.05,-4.35 10.05,-10.04 v -31.25 c 0,-5.69 -4.35,-10.05 -10.05,-10.05 z m 41.29,71.43 V 505 h 20.09 v -23.44 z"
         fill-opacity="1"
         id="path1-2"
         style="display:inline" /></g><g
       id="bullseye"
       style="display:inline"
       class="bullseye"><path
         d="m 314.89,257.11 c 0.61,4.3 -0.52,8.67 -3.14,12.13 -2.61,3.47 -6.5,5.76 -10.8,6.36 l -159.87,22.38 -23.16,35.31 -89.716,12.56 23.16,-35.36 -26.64,3.73 c -0.31,0 -0.61,0.13 -0.93,0.18 -0.755,0.11 -1.517,0.16 -2.28,0.16 -8.674,0.1 -15.9216,-6.58 -16.5215,-15.23 -0.5999,-8.66 5.6565,-16.27 14.2615,-17.37 0.32,0 0.62,0 0.94,-0.11 l 26.64,-3.73 -31.97,-27.7 89.646,-12.54 31.98,27.7 159.88,-22.38 c 0.76,-0.1 1.52,-0.15 2.29,-0.15 8.15,0 15.06,5.97 16.23,14.03 z m -39.84,-41.85 c 3,-4.61 7.03,-8.45 11.78,-11.21 4.42,-2.53 9.49,-3.68 14.57,-3.3 5.3,0.5 10.37,2.39 14.7,5.48 5.17,3.67 9.56,8.31 12.94,13.67 4.11,6.4 7.19,13.41 9.11,20.77 2.06,7.79 3,15.83 2.78,23.88 -0.17,7.38 -1.45,14.68 -3.79,21.68 -1.99,6.1 -5.14,11.76 -9.27,16.67 -3.56,4.26 -8.22,7.47 -13.47,9.28 -4.84,1.59 -10.05,1.69 -14.95,0.28 -5.06,-1.51 -9.7,-4.16 -13.58,-7.73 -2.28,-2.05 -4.37,-4.3 -6.23,-6.73 l -35.04,4.9 c 2.18,5.95 4.76,11.74 7.71,17.34 5.31,10.21 12.13,19.55 20.25,27.71 7.36,7.47 16.2,13.31 25.95,17.15 9.54,3.7 19.94,4.54 29.95,2.41 10.88,-2.52 20.8,-8.12 28.57,-16.14 8.57,-8.54 15.65,-19.83 20.75,-33.14 5.47,-14.6 8.52,-30 9.03,-45.59 0.66,-17.18 -1.35,-34.37 -5.95,-50.94 -4.16,-15.5 -10.95,-30.17 -20.08,-43.36 -8.25,-11.65 -17.81,-20.57 -27.99,-26.5 -9.15,-5.52 -19.66,-8.39 -30.35,-8.27 -10.23,0.32 -20.14,3.61 -28.53,9.46 -8.92,6.26 -16.39,14.37 -21.89,23.78 -5.91,9.97 -10.3,20.77 -13.02,32.04 -1.9,7.67 -3.19,15.47 -3.85,23.34 l 33.86,-4.74 c 1.49,-4.3 3.51,-8.4 6.04,-12.19 z m 215.29,-37.98 c -11.85,-38.29 -29.62,-70.31 -50.85,-94.871 -20.15,-23.35 -42.93,-39.36 -66.36,-47.99 -21.88,-8.05 -44.04,-9.49 -65.09,-4.62 -19.61,4.57 -38.22,14.63 -54.94,29.99 -15.65,14.34 -28.32,32.17 -38.2,51.901 -9.59,19.49 -16.63,40.13 -20.95,61.42 -4.46,21.67 -6.59,43.76 -6.35,65.88 l 24.52,-3.43 c 0.4,-14.75 2.23,-29.42 5.48,-43.81 3.6,-16.26 9.44,-31.94 17.34,-46.6 7.99,-14.55 18.14,-27.28 30.4,-37.01 12.9,-10.244 27.01,-16.271 41.58,-18.061 15.38,-1.92 31.24,0.8 46.61,8.153 16.15,7.708 31.58,20.388 45.05,37.748 13.95,18 25.52,40.67 33.29,67.23 7.67,26.29 10.88,53.69 9.48,81.04 -1.36,26.12 -6.94,50.41 -15.98,71.3 -8.73,20.17 -20.47,36.78 -34.56,48.72 -13.36,11.37 -28.59,18.36 -45.01,20.25 -15.32,1.64 -30.8,-1.03 -44.69,-7.71 -13.37,-6.21 -25.87,-15.72 -36.94,-27.69 -11.19,-12.24 -20.6,-25.99 -27.94,-40.86 -6.66,-13.4 -11.94,-27.43 -15.78,-41.89 l -24.41,3.37 c 4.92,21.66 12.18,42.71 21.67,62.79 9.22,19.57 20.96,37.86 34.93,54.38 14.1,16.48 30.2,30.21 47.68,39.94 18.65,10.39 39.11,16.35 60.48,16.15 23.08,-0.23 44.99,-7.64 64.62,-21.48 21.02,-14.83 39.09,-36.8 52.78,-64.52 14.38,-29.12 23.56,-63.83 26.11,-101.67 2.61,-39.88 -2.12,-79.91 -13.96,-118.08 z"
         fill-opacity="1"
         id="path1-6"
         style="display:inline" /></g><g
       id="dice-target"
       style="display:inline"
       class="dice-target"><path
         d="M 245.63,5 V 29.17 C 128.33,33.97 33.97,128.33 29.17,245.62 H 5 v 18.75 h 24.17 c 4.8,117.3 99.16,211.67 216.46,216.46 V 505 h 18.75 V 480.83 C 381.67,476.04 476.04,381.67 480.83,264.37 H 505 V 245.62 H 480.83 C 476.04,128.33 381.67,33.97 264.38,29.17 V 5 Z m 0,42.93 v 23.74 h 18.75 V 47.93 c 107.08,4.76 192.91,90.61 197.7,197.69 h -23.75 v 18.75 h 23.75 c -4.79,107.09 -90.62,192.92 -197.7,197.71 v -23.75 h -18.75 v 23.75 C 138.54,457.29 52.69,371.46 47.93,264.37 H 71.67 V 245.62 H 47.93 C 52.69,138.54 138.54,52.69 245.63,47.93 Z m 9.27,39.71 c -5.21,0 -9.9,1.14 -13.44,3.02 l -121.04,69.86 c -7.61,4.27 -7.61,11.35 0,15.83 l 121.04,69.69 c 7.5,4.48 19.27,4.48 26.77,0 l 120.73,-69.69 c 7.71,-4.48 7.71,-11.56 0,-15.83 L 268.23,90.66 c -3.54,-1.88 -8.65,-3.02 -13.33,-3.02 z m -92.71,65.17 c 6.25,0.11 12.18,1.67 16.66,4.27 8.34,5.94 7.61,14.69 -1.56,20.21 -9.37,5.42 -24.06,5.83 -34.06,0.83 -15.52,-9.68 -3.54,-25.72 18.96,-25.31 z m 186.04,0.11 h 2.08 c 6.25,0.2 12.19,1.87 16.56,4.37 8.65,5.94 8.03,14.9 -1.25,20.42 -9.47,5.52 -24.37,5.83 -34.37,0.73 -15.63,-9.38 -4.69,-25.11 16.98,-25.52 z m -92.71,0 c 22.29,0.2 33.13,16.14 17.5,25.52 -9.69,6.46 -26.25,6.66 -36.56,0.62 -10.21,-6.04 -10,-15.94 0.62,-21.77 4.9,-2.81 11.57,-4.48 18.44,-4.37 z m -146.87,42.7 c -4.69,0 -7.82,3.13 -7.82,9.59 V 329.9 c 0,8.75 6.05,19.06 13.75,23.54 l 116.05,67.08 c 7.5,4.27 13.43,0.73 13.43,-7.92 V 287.92 c 0,-8.65 -5.93,-19.17 -13.43,-23.44 L 114.48,197.29 c -2.29,-1.14 -4.27,-1.56 -5.83,-1.67 z m 293.02,0 c -1.67,0.11 -3.86,0.53 -6.05,1.67 l -116.14,67.19 c -7.5,4.27 -13.44,14.79 -13.44,23.44 V 412.6 c 0,8.65 5.94,12.19 13.44,7.92 l 116.14,-67.08 c 7.3,-4.48 13.55,-14.79 13.55,-23.54 V 205.21 c 0,-6.46 -3.13,-9.59 -7.5,-9.59 z m -192.71,68.23 c 11.66,0.42 25.73,18.02 25.52,32.82 0.42,11.46 -7.71,16.14 -17.92,10.31 -10.1,-5.94 -18.23,-20.21 -17.6,-31.04 0,-7.09 3.33,-11.67 8.85,-12.09 z m 136.35,22.71 h 1.15 c 5.41,0.42 8.85,5 8.85,11.98 -0.1,10.94 -8.02,24.27 -17.81,30 -9.9,5.73 -17.81,1.56 -17.92,-9.27 -0.1,-14.79 14.07,-32.6 25.73,-32.71 z M 119.38,310 c 11.87,-0.52 26.56,17.5 26.56,32.6 0.41,11.57 -7.71,16.25 -17.92,10.52 -10.1,-5.93 -18.23,-20.1 -17.71,-31.04 0,-7.18 3.44,-11.77 9.07,-12.08 z"
         fill-opacity="1"
         id="path1-78"
         style="display:inline" /></g><g
       id="dice-twenty"
       style="display:inline"
       class="dice-twenty"><path
         d="M 246.52,5 60.19,124.11 246.52,120.08 Z m 16.97,0 v 115.08 l 186.36,4.03 z m 54.52,62.47 c 6.47,3.72 8.7,7.64 16.02,4.46 11.35,0.85 23.65,6.15 29.27,16.65 4.99,4.77 1.59,13.36 -5.51,13.36 -10.29,0.11 -20.9,-6.46 -15.49,-8.8 4.99,-2.12 15.59,0.96 10.61,-5.83 -3.82,-4.77 -11.67,-8.28 -17.29,-6.26 -1.7,7.21 -9.97,4.24 -12.73,-0.74 -2.44,-6.15 -9.65,-8.7 -15.91,-8.38 -6.47,2.86 1.7,9.33 5.62,10.5 8.38,2.33 0.21,7.95 -4.35,5.41 -4.45,-2.55 -15.91,-10.18 -14.32,-19.41 6.16,-7.84 16.76,-4.9 24.08,-0.96 z M 202.93,63.76 c 5.83,0.53 13.04,3.18 10.82,10.5 -4.56,7.43 -10.4,13.9 -19.2,15.7 -6.9,3.61 -15.81,4.67 -22.91,2.01 -3.93,-2.43 -14.32,-9.86 -15.81,-3.6 -2.22,15.7 0.75,13.89 -11.77,18.88 V 81.37 c 10.5,-4.14 22.38,-4.77 32.14,1.38 8.48,4.45 20.58,1.59 25.67,-6.05 1.48,-6.89 -8.59,-4.88 -12.94,-3.6 -2.87,-8.7 8.38,-7.96 14,-9.34 z m 37.12,73.4 -197.82,4.35 75.53,204.6 z m 29.91,0 122.3,208.95 75.52,-204.6 z m -14.95,7.96 -124.21,212.34 h 248.41 z m 141.38,22.38 c 14.75,8.8 22.81,27.78 23.44,45.6 -1.37,14.43 -0.74,21 -16.12,22.7 -15.38,1.7 -25.35,-20.36 -31.5,-34.58 -3.61,-10.5 -6.15,-25.45 1.8,-33.19 6.47,-5.1 15.91,-4.35 22.38,-0.53 z m -237.27,17.07 c 2.23,4.24 -0.53,12.09 -5.09,12.84 -5.2,0.74 -4.03,-9.87 -9.97,-12.31 -7.32,-2.44 -14.42,5.94 -15.91,12.31 11.03,-4.25 21.53,7.53 21.53,18.03 -0.42,12.41 -8.38,26.3 -20.89,29.8 h -5.94 c -13.47,-0.74 -19.41,-16.76 -15.06,-28.21 4.66,-16.76 11.45,-35.96 28.85,-43.07 9.01,-4.13 20.15,3.4 22.48,10.61 z M 386,175.66 c -7.53,-0.1 -4.67,10.61 -3.5,15.38 3.71,12.2 7.74,28.21 20.05,31.82 7.21,-1.27 4.66,-13.58 3.92,-17.5 -4.98,-11.56 -7.53,-24.71 -20.47,-29.7 z m -347.37,5.09 v 183.71 l 65.66,-6.04 z m 432.75,0 -65.65,177.67 65.65,6.04 z m -125.05,0.75 30.23,67.35 -10.61,4.66 -21.21,-45.92 c -6.47,3.18 -13.79,9.44 -15.49,-1.49 -1.38,-4.13 9.02,-5.41 8.6,-12.62 -0.32,-7.32 2.33,-12.94 8.48,-11.98 z m -224.86,29.06 c -2.55,5.41 -4.35,10.92 -2.87,16.86 1.81,9.34 14.32,6.79 16.55,-0.85 2.86,-5.3 4.14,-12.41 -0.53,-16.65 -4.35,-3.61 -9.44,-2.97 -13.15,0.64 z m 348.32,44.12 c -0.1,19.73 1.17,41.58 -10.29,58.66 -0.95,1.27 -2.33,2.01 -3.92,2.65 -6.15,-4.35 -3.18,-11.99 1.27,-16.44 1.06,7.74 5.84,-3.08 7,-5.94 1.38,-3.4 3.82,-18.78 -1.06,-10.82 0.74,4.24 -7.21,13.89 -9.86,8.59 -5.31,-15.27 0,-32.35 7.42,-46.14 6.05,-6.57 10.5,4.67 9.44,9.44 z M 47.04,243.86 c 0.63,0.11 1.42,1.06 2.63,3.82 v 64.81 c -7.74,-7.43 -4.74,-19.09 -4.72,-28 0,-8.91 1.75,-17.29 -1.36,-24.61 -4.9,-1.8 -6.14,-18.03 -3.36,-13.47 4.68,5.09 4.94,-2.87 6.81,-2.55 z m 189.62,8.06 c 8.59,4.78 14.63,15.28 11.45,25.04 -2.23,16.12 -28.64,22.38 -32.24,31.5 -1.27,3.18 26.94,1.69 32.03,1.69 0.53,4.25 1.59,11.35 -4.03,12.41 -15.38,-1.27 -31.71,-0.63 -47.84,-0.63 0.43,-11.88 7.85,-22.59 18.03,-28.43 7.32,-5.19 16.34,-9.86 19.2,-18.98 1.91,-4.78 -0.63,-9.87 -4.88,-12.2 -4.45,-3.08 -11.66,-2.44 -14,2.86 -2.12,4.03 -4.66,9.65 -9.22,10.19 -3.08,0.42 -9.55,0.52 -7.64,-5.2 1.48,-5.94 3.6,-12.2 8.7,-16.13 9.33,-6.68 21.1,-7.1 30.44,-2.12 z m 56.53,-1.48 c 7.21,2.33 12.73,8.38 15.17,15.49 6.47,15.59 5.83,35.1 -4.67,48.68 -4.77,5.09 -10.82,9.65 -18.03,9.65 -13.26,-0.1 -23.76,-11.77 -26.3,-24.18 -3.29,-14.21 -1.91,-30.44 7.31,-42.22 7.22,-8.06 16.97,-10.92 26.52,-7.42 z m 165.57,8.59 c -1.7,6.26 -3.5,14.21 -0.74,20.47 5.41,-2.12 5.73,-10.18 7,-15.38 0.95,-6.47 -3.71,-13.36 -6.26,-5.09 z m -186.89,22.38 c 0.64,11.14 1.8,24.18 10.29,29.91 5.2,1.91 10.29,-2.33 11.77,-7.1 2.02,-6.69 2.44,-13.69 2.55,-20.58 -0.21,-7.53 -1.59,-15.91 -7.11,-21.32 -12.94,-4.67 -16.23,11.56 -17.5,19.09 z m 171.94,-14.96 v 64.92 l -4.67,7.1 v -44.86 c -4.88,7.95 -9.65,9.65 -6.47,-0.96 6.47,-7.53 5.09,-18.45 11.14,-26.2 z m -371.4,12.94 c 0.85,3.82 5.43,18.88 2.17,15.7 -2.09,-1.38 -3.84,-5.19 -3.62,-6.47 -1.64,-3.18 -3.14,-6.47 -4.47,-9.75 -3.13,4.24 -4.2,8.8 -3.33,14.21 0.22,-1.7 1.25,-2.44 3.6,-0.74 8.31,13.36 12.91,30.86 7.73,46.13 l -2.35,1.17 c -10.99,-6.15 -12.1,-20.58 -14.25,-31.82 -1.64,-13.05 -0.84,-26.2 2.44,-38.93 5.52,-4.03 9.72,5.73 12.08,10.5 z m -7.48,21.43 c -4.3,4.99 -2.39,13.58 -0.4,19.52 1.18,5.83 7.34,10.82 6.43,1.69 0.73,-11.77 -2.47,-13.47 -6.03,-21.21 z M 135.36,374.43 255.01,505 374.65,374.43 Z m -22.7,0.32 -57.1,5.2 68.14,43.59 c -2.76,-2.86 -5.2,-6.05 -7.53,-9.33 -5.52,-7.32 -11.14,-14.43 -20.05,-17.61 -9.28,-6.89 -4.46,-5.62 3.07,-2.76 -1.06,-1.91 -0.74,-2.76 0.11,-2.76 2.33,-0.21 8.91,4.46 10.39,6.69 l 26.2,33.51 69.05,44.23 z m 284.69,0 -44.97,49.11 c 6.78,-3.29 11.98,-9.02 18.03,-13.15 2.54,-1.49 3.92,-2.02 4.56,-2.02 2.23,0 -5.73,7.53 -8.17,10.93 -9.97,10.39 -16.97,24.39 -30.33,30.86 l 20.04,-25.98 c -2.44,1.37 -6.36,3.39 -8.69,4.34 l -42.75,46.67 79.02,-50.48 c 5.73,-7.11 2.02,-5.94 -6.05,-0.96 l -12.09,6.36 c 12.09,-14.53 32.67,-30.01 42.43,-37.75 9.76,-7.75 16.86,-10.4 8.7,-1.6 l -13.37,16.97 c 10.61,-8.06 0.96,4.14 -4.77,5.84 -0.74,1.06 -1.49,2.12 -2.33,3.07 l 57.8,-37.01 z m -163.56,17.93 v 46.03 h -14.21 v -31.82 c -5.3,-1.49 -11.03,1.8 -16.23,-0.32 -4.03,-3.08 1.06,-7.21 4.78,-6.26 3.5,-0.1 8.06,0.21 9.86,-3.39 4.67,-4.78 10.18,-4.67 15.8,-4.24 z m 30.76,0.53 c 12.84,1.27 25.67,0.63 38.82,0.63 1.59,3.18 0.85,8.27 -3.5,8.38 -8.16,0.32 -22.27,-1.7 -27.47,0.64 -8.7,11.13 6.05,4.03 12.09,5.51 7.43,1.17 15.91,3.08 20.26,9.76 2.23,3.29 2.87,7.74 0.74,11.35 -6.15,7.21 -18.03,12.2 -26.83,11.56 -7.74,-0.63 -16.55,-1.17 -21.85,-7.53 -6.79,-11.24 11.14,-7.11 12.94,-3.39 6.36,5.62 21.53,2.01 21.96,-4.99 0.63,-4.45 -2.23,-6.68 -7.32,-8.27 -5.09,-1.59 -13.37,1.06 -18.35,1.91 -4.99,0.85 -10.18,0.53 -9.55,-4.67 0.85,-4.45 2.87,-8.59 2.87,-13.26 0.1,-3.18 1.8,-7.42 5.19,-7.63 z m 141.6,5.3 c -0.21,-0.21 -7.42,6.15 -10.5,8.59 l -16.76,13.89 c 11.25,-6.89 20.47,-12.72 27.26,-22.48 z m -261.98,15.06 c 2.54,0 7.95,4.88 9.97,7.42 l 27.68,32.99 c -8.17,-2.23 -14.11,-7.53 -18.67,-14.53 -6.89,-7.74 -11.98,-17.61 -22.48,-20.79 -9.55,-5.3 -5.52,-6.79 2.22,-2.33 -0.31,-2.02 0.22,-2.76 1.28,-2.76 z"
         fill-opacity="1"
         id="path1-17"
         style="display:inline" /></g><g
       id="dice-fire"
       style="display:inline"
       class="dice-fire"><path
         d="m 220.01,5 c -14.2,0 -30.5,3.83 -49.5,12.78 77.2,9.252 65.9,98.33 14.1,114.25 C 119.21,152.14 53.306,106.53 86.276,25.311 46.606,45.697 44.106,112.23 73.346,145.26 142.91,223.58 58.516,278.55 38.866,194.32 -0.31418,329.33 61.956,505 260.31,505 c 250.7,0 282,-403.09 129.2,-446.491 26.5,46.301 -13.1,76.311 -24.9,78.681 C 313.31,147.84 306.51,4.989 220.01,5 Z m 37.5,127.03 c 4.5,0 9.4,1.18 12.8,3.12 l 115.9,72.18 c 7.4,4.41 7.4,11.73 0,16.35 l -115.9,71.97 c -7.2,4.63 -18.5,4.63 -25.7,0 l -116.2,-71.97 c -7.3,-4.62 -7.3,-11.94 0,-16.35 l 116.2,-72.18 c 3.4,-1.94 7.9,-3.12 12.9,-3.12 z m -89,67.34 c -21.6,-0.43 -33.1,16.14 -18.2,26.14 9.6,5.17 23.7,4.74 32.7,-0.86 8.8,-5.7 9.5,-14.74 1.5,-20.87 -4.3,-2.69 -10,-4.3 -16,-4.41 z m 178.6,0.11 c -20.8,0.43 -31.3,16.67 -16.3,26.36 9.6,5.27 23.9,4.94 33,-0.76 8.9,-5.7 9.5,-14.95 1.2,-21.08 -4.2,-2.58 -9.9,-4.31 -15.9,-4.52 z m -89,0 c -6.6,-0.11 -13,1.61 -17.7,4.52 -10.2,6.02 -10.4,16.24 -0.6,22.48 9.9,6.24 25.8,6.03 35.1,-0.64 15,-9.69 4.6,-26.15 -16.8,-26.36 z m -141,44.11 c 1.5,0.1 3.4,0.53 5.6,1.72 l 111.5,69.38 c 7.2,4.42 12.9,15.28 12.9,24.21 v 128.77 c 0,8.93 -5.7,12.59 -12.9,8.18 l -111.4,-69.28 c -7.4,-4.63 -13.2,-15.28 -13.2,-24.32 V 253.48 c 0,-6.67 3,-9.89 7.5,-9.89 z m 281.3,0 c 4.2,0 7.2,3.22 7.2,9.89 v 128.77 c 0,9.04 -6,19.69 -13,24.32 l -111.5,69.28 c -7.2,4.41 -12.9,0.75 -12.9,-8.18 V 338.9 c 0,-8.93 5.7,-19.79 12.9,-24.21 l 111.5,-69.38 c 2.1,-1.19 4.2,-1.62 5.8,-1.72 z m -185,70.46 h -1.1 c -5.3,0.43 -8.5,5.16 -8.5,12.48 -0.6,11.19 7.2,25.92 16.9,32.06 9.8,6.02 17.6,1.18 17.2,-10.65 0.2,-15.28 -13.3,-33.46 -24.5,-33.89 z m 130.9,23.45 c -11.2,0.11 -24.8,18.5 -24.7,33.78 0.1,11.19 7.7,15.49 17.2,9.58 9.4,-5.92 17,-19.69 17.1,-30.99 0,-7.2 -3.3,-11.94 -8.5,-12.37 z m -216.9,24.21 c -5.4,0.32 -8.7,5.05 -8.7,12.48 -0.5,11.29 7.3,25.92 17,32.05 9.8,5.92 17.6,1.08 17.2,-10.86 0,-15.6 -14.1,-34.21 -25.5,-33.67 z"
         fill-opacity="1"
         id="path1"
         style="display:inline" /></g><g
       id="rolling-dice"
       style="display:inline"
       class="rolling-dice"><path
         d="M 128.59,16.99 9.86,102.12 113.17,133.5 233.22,39.57 Z m 121.86,33.52 -127.32,97.03 55.08,141.42 9.2,-8.05 4.57,-16.94 c -6.36,-4.14 -10.42,-13.27 -9.8,-22.06 0.61,-8.51 5.47,-14.57 11.87,-14.8 1.29,0 2.6,0.15 3.9,0.57 1.14,0.38 2.27,0.94 3.36,1.66 l 8.56,-31.79 c 0.1,-0.38 0.23,-0.76 0.38,-1.12 0,-0.1 0.1,-0.1 0.11,-0.14 0.1,-0.25 0.22,-0.5 0.34,-0.74 0,-0.1 0.1,-0.11 0.11,-0.17 0.12,-0.23 0.26,-0.45 0.4,-0.67 0.18,-0.27 0.37,-0.53 0.58,-0.78 0,0 0.1,-0.1 0.11,-0.1 0.18,-0.22 0.38,-0.44 0.58,-0.64 0.22,-0.22 0.46,-0.44 0.7,-0.64 0.16,-0.12 0.33,-0.25 0.5,-0.36 0.1,-0.1 0.19,-0.15 0.28,-0.22 0.18,-0.11 0.36,-0.22 0.54,-0.32 0.1,-0.1 0.19,-0.11 0.29,-0.16 0.15,-0.1 0.31,-0.16 0.47,-0.23 0.14,-0.1 0.27,-0.13 0.41,-0.19 0.16,-0.1 0.32,-0.12 0.48,-0.17 0.14,-0.1 0.29,-0.1 0.44,-0.15 0.14,0 0.29,-0.1 0.43,-0.1 0.17,-0.1 0.34,-0.1 0.51,-0.14 0.18,0 0.37,-0.1 0.55,-0.1 h 0.4 l 36.27,-3.1 c 1.69,-6.3 5.95,-10.34 11.13,-10.55 1.29,0 2.61,0.15 3.92,0.58 3.51,1.16 6.78,3.97 9.19,7.9 L 293,184.02 Z m -123.53,8.21 c 9.41,0.197 15.18,4.136 13.8,9.42 -1.6,6.134 -12.19,11.927 -23.66,12.94 -5.51,0.487 -10.49,-0.217 -13.85,-1.957 -3.35,-1.741 -4.801,-4.375 -4.03,-7.323 0.77,-2.947 3.69,-5.966 8.13,-8.392 4.44,-2.427 10.03,-4.063 15.54,-4.548 1.39,-0.121 2.75,-0.168 4.07,-0.14 z m 108.1,25.37 c 1.29,-0.05 2.6,0.143 3.91,0.57 7.96,2.607 13.81,13.202 13.06,23.67 -0.75,10.45 -7.8,16.82 -15.76,14.22 -3.82,-1.25 -7.35,-4.44 -9.8,-8.88 -2.45,-4.44 -3.63,-9.75 -3.27,-14.781 0.61,-8.511 5.46,-14.564 11.86,-14.799 z M 5,120.93 l 50.68,123.1 101.65,43.55 -49.6,-135.44 z m 159.52,18.81 c 1.29,-0.1 2.6,0.14 3.9,0.57 7.96,2.6 13.81,13.2 13.06,23.66 -0.36,5.03 -2.22,9.35 -5.18,12.03 -2.96,2.66 -6.77,3.46 -10.59,2.21 -7.96,-2.61 -13.81,-13.2 -13.06,-23.67 0.61,-8.52 5.46,-14.58 11.87,-14.8 z m -81.04,14.04 c 5.537,-0.31 13.443,6.72 18.29,16.25 2.5,4.93 3.86,9.91 3.77,13.85 -0.1,3.95 -1.61,6.53 -4.23,7.18 -5.464,1.34 -14.113,-5.87 -19.32,-16.12 -5.204,-10.24 -5.003,-19.65 0.45,-21.01 0.332,-0.1 0.679,-0.13 1.04,-0.15 z m 284.11,43.37 -120.93,10.32 122.72,86.21 122.51,-18.29 -124.3,-78.25 z M 55.26,207.56 c 5.539,-0.31 13.453,6.72 18.3,16.26 2.501,4.93 3.857,9.91 3.769,13.85 -0.09,3.94 -1.613,6.52 -4.239,7.16 -5.461,1.36 -14.11,-5.85 -19.32,-16.1 -2.503,-4.92 -3.861,-9.91 -3.775,-13.85 0.09,-3.94 1.61,-6.52 4.235,-7.17 0.328,-0.1 0.672,-0.13 1.03,-0.15 z m 169.75,8.42 -44.8,166.31 124.71,107.28 50.84,-181.71 -130.75,-91.87 z m 136.97,12.05 c 6.8,0.13 14.75,2.06 21.25,5.17 10.86,5.19 14.53,12.06 8.19,15.36 -6.34,3.29 -20.28,1.75 -31.15,-3.43 -5.22,-2.5 -9.02,-5.52 -10.57,-8.4 -1.53,-2.89 -0.69,-5.39 2.36,-6.98 2.31,-1.2 5.77,-1.8 9.92,-1.72 z M 505,293.07 374.62,312.53 324.12,493 449.55,458.73 Z m -196.1,11.65 c 1.52,0 3.06,0.34 4.57,1.01 4.43,1.98 8.38,6.7 10.99,13.11 2.6,6.42 3.64,14.01 2.89,21.11 -1.56,14.77 -10.3,23.41 -19.52,19.3 -4.43,-1.98 -8.38,-6.69 -10.99,-13.11 -2.6,-6.41 -3.65,-14 -2.9,-21.1 1.27,-12.02 7.39,-20.34 14.96,-20.32 z m 166.2,12.55 c 3.52,-0.1 6.43,1.47 8.27,4.46 4.5,7.31 1.52,21.03 -6.65,30.66 -8.18,9.62 -18.46,11.5 -22.96,4.19 -2.16,-3.51 -2.68,-8.71 -1.43,-14.46 1.24,-5.76 4.15,-11.59 8.08,-16.21 4.52,-5.32 9.93,-8.5 14.69,-8.64 z m -74.1,11.5 c 3.52,-0.1 6.43,1.47 8.27,4.46 4.5,7.31 1.52,21.03 -6.65,30.66 -3.93,4.62 -8.56,7.67 -12.87,8.45 -4.3,0.79 -7.94,-0.75 -10.1,-4.26 -4.5,-7.32 -1.51,-21.05 6.67,-30.67 4.52,-5.32 9.92,-8.5 14.68,-8.64 z m -187.67,14.35 c 1.53,0 3.07,0.34 4.58,1.02 4.43,1.98 8.38,6.7 10.99,13.11 2.6,6.42 3.64,14.01 2.89,21.11 -0.75,7.1 -3.23,13.12 -6.89,16.74 -3.67,3.61 -8.22,4.53 -12.65,2.55 -9.22,-4.12 -15.44,-19.44 -13.88,-34.21 1.27,-12.02 7.39,-20.33 14.96,-20.32 z m 228.96,65.65 c 3.52,-0.1 6.43,1.47 8.27,4.46 2.16,3.51 2.68,8.71 1.43,14.46 -1.24,5.76 -4.15,11.59 -8.08,16.21 -3.93,4.62 -8.56,7.66 -12.87,8.45 -4.3,0.78 -7.94,-0.75 -10.1,-4.27 -4.5,-7.32 -1.51,-21.05 6.67,-30.67 4.52,-5.32 9.92,-8.5 14.68,-8.64 z m -75.86,21.03 c 3.52,-0.1 6.43,1.46 8.27,4.45 2.17,3.51 2.68,8.71 1.44,14.47 -1.25,5.75 -4.16,11.59 -8.09,16.21 -3.93,4.62 -8.56,7.66 -12.86,8.44 -4.31,0.78 -7.94,-0.75 -10.1,-4.27 -2.16,-3.51 -2.67,-8.72 -1.43,-14.47 1.25,-5.75 4.16,-11.58 8.09,-16.2 4.52,-5.31 9.93,-8.49 14.68,-8.63 z"
         fill-opacity="1"
         id="path1-77"
         style="display:inline" /></g><g
       id="backward-time"
       style="display:inline"
       class="backward-time"><path
         d="m 196.67,5.01 -63.58,116.27 116.28,63.59 21.09,-38.58 -51.81,-28.33 c 11.95,-2.53 24.13,-3.81 36.35,-3.8 96.05,0 173.43,77.39 173.43,173.43 0,96.06 -77.38,173.44 -173.43,173.44 -96.05,0 -173.43,-77.38 -173.43,-173.44 0,-20.1 3.39,-39.39 9.65,-57.31 L 51.74,210.54 C 42.62,234.5 37.6,260.48 37.6,287.59 37.6,407.4 135.2,505 255,505 374.81,505 472.4,407.4 472.4,287.59 472.4,167.79 374.81,70.196 255,70.196 c -16,0 -31.61,1.759 -46.63,5.057 L 235.25,26.09 196.67,5 Z m 127.35,159.24 -80.01,120.02 v 140.12 h 21.98 V 290.93 l 76.33,-114.49 z"
         fill-opacity="1"
         id="path1-87"
         style="display:inline" /></g><g
       id="juggler"
       style="display:inline"
       class="juggler"><path
         d="m 277.78,5 c -20.17,0 -36.21,16.63 -36.21,36.81 0,20.19 16.04,36.22 36.21,36.22 20.18,0 36.21,-16.03 36.21,-36.22 C 313.99,21.64 297.96,5 277.78,5 Z M 115.13,70.38 c -20.17,0 -36.2,16.66 -36.2,36.84 0,20.18 16.03,36.21 36.21,36.21 20.17,0 36.2,-16.03 36.2,-36.21 0,-20.18 -16.03,-36.84 -36.2,-36.84 z M 419.01,94.6 c -20.18,0 -36.21,16.66 -36.21,36.84 0,20.18 16.03,36.2 36.21,36.2 20.17,0 36.21,-16.02 36.21,-36.2 0,-20.18 -16.04,-36.84 -36.21,-36.84 z m -173.43,61.52 c -3.46,0 -6.96,0.45 -10.39,1.37 -27.43,7.35 -41.81,42.5 -32.17,78.5 3.75,13.97 10.57,26 19.11,35.08 -20.56,4.85 -36.49,14.39 -43.29,26.19 l -0.44,-0.11 -44.46,68.89 -54.18,-23.45 c -31.4,-17.23 -65.81,25.65 -32.73,44.56 l 100.97,47.1 40.65,-53.51 c 22.98,41.4 16.84,82.82 -26.85,124.26 H 342.65 C 300.09,464.17 297.29,423.3 317.77,382.47 l 39.34,51.78 100.98,-47.1 c 12.44,-7.11 15.32,-17.6 12.43,-27.02 -8.75,5.62 -19.15,8.91 -30.3,8.91 -15.2,0 -28.99,-6.11 -39.11,-15.97 l -29.93,12.97 -44.46,-68.89 v 0 c -5.85,-10.07 -18.41,-18.47 -34.78,-23.72 12.38,-15.19 17.03,-39.44 10.42,-64.06 -8.43,-31.51 -32.49,-53.23 -56.75,-53.25 z M 70.14,221.36 c -20.17,0 -36.21,16.63 -36.21,36.81 0,20.18 16.04,36.22 36.21,36.22 20.18,0 36.21,-16.04 36.21,-36.22 0,-20.17 -16.03,-36.8 -36.21,-36.8 z m 370.08,54.65 c -20.17,0 -36.2,16.67 -36.2,36.85 0,20.17 16.03,36.21 36.2,36.21 20.18,0 36.22,-16.04 36.22,-36.21 0,-20.18 -16.04,-36.85 -36.22,-36.85 z"
         fill-opacity="1"
         id="path1-49"
         style="display:inline" /></g><g
       id="skills"
       style="display:inline"
       class="skills"><path
         d="M 119.62,5 V 5.11 C 93.085,8.5 69.635,39.07 69.635,78.13 c 0,21.65 7.53,40.75 18.57,54.02 l 10.825,12.95 -16.655,3.08 c -14.55,2.75 -25.26,10.5 -34.18,22.81 -9.02,12.21 -15.81,29.19 -20.59,48.61 -8.7,35.66 -10.51,79.29 -10.72,117.28 h 46.7 L 76.215,505 H 178.42 l 11.14,-168.12 h 44.47 c 0,-38.42 -0.32,-82.57 -8.28,-118.55 -4.24,-19.63 -10.82,-36.51 -19.84,-48.72 -9.13,-12.1 -20.38,-19.84 -36.62,-22.28 l -16.98,-2.66 10.72,-13.37 C 173.64,118.03 180.75,99.25 180.75,78.13 180.75,36.52 154.43,5.11 125.14,5.11 122.06,5.11 120.15,5 119.62,5 Z m 340.59,8.49 c -18.25,0 -32.9,14.62 -32.9,32.9 0,18.29 14.65,32.9 32.9,32.9 18.26,0 32.91,-14.61 32.91,-32.9 0,-18.28 -14.65,-32.9 -32.91,-32.9 z M 323.3,36.84 V 87.78 H 213.98 v 19.11 H 323.3 v 167.69 h -58.37 v 19.11 H 323.3 V 410.43 H 213.98 v 19.11 H 323.3 v 33.96 h 85.76 c -0.53,-3.08 -0.85,-6.26 -0.85,-9.55 0,-3.29 0.32,-6.47 0.85,-9.55 H 342.39 V 293.69 h 66.66 c -0.53,-3.08 -0.85,-6.27 -0.85,-9.56 0,-3.29 0.32,-6.47 0.85,-9.55 H 342.39 V 55.94 h 66.66 c -0.53,-3.09 -0.85,-6.29 -0.85,-9.55 0,-3.26 0.32,-6.45 0.85,-9.55 z m 136.91,214.39 c -18.25,0 -32.9,14.65 -32.9,32.9 0,18.26 14.65,32.91 32.9,32.91 18.26,0 32.91,-14.65 32.91,-32.91 0,-18.25 -14.65,-32.9 -32.91,-32.9 z m 0,169.82 c -18.25,0 -32.9,14.64 -32.9,32.9 0,18.25 14.65,32.9 32.9,32.9 18.26,0 32.91,-14.65 32.91,-32.9 0,-18.26 -14.65,-32.9 -32.91,-32.9 z"
         fill-opacity="1"
         id="path1-555"
         style="display:inline" /></g><g
       id="punch"
       style="display:inline"
       class="punch"><path
         d="m 180.86,53.23 c -1.17,0 -2.35,0 -3.54,0.12 -18.93,1.2 -38.12,13.72 -44.95,32.041 C 91.84,194.3 71.6,238.72 59.22,350.57 c 17.4,16.05 37.62,31.47 59.77,45.36 L 198,162.17 l 21.05,7.11 -80.5,238.21 c 23.21,12.95 48.1,24.07 73.76,32.46 l 89.72,-239.79 20.82,7.77 -89.16,238.29 c 23.14,6.07 46.64,9.75 69.94,10.56 l 94.37,-212.3 20.33,9.03 -90.28,203.05 c 25.96,-1.48 51.41,-6.87 75.48,-16.99 51.54,-64.06 86.41,-130.62 100.54,-205.47 6.05,-32.11 -17.57,-63.19 -64.51,-65.2 l -7.32,-0.34 -2.61,-6.84 c -10.05,-26.64 -23.49,-35.8 -37.47,-38.63 -13.98,-2.83 -30.07,1.82 -42.2,8.77 l -15.54,8.89 -1.08,-17.85 C 332.16,103.4 321.03,87.687 304.41,80.51 287.79,73.34 265.07,74.29 239.2,92.299 l -12.42,8.621 -4.53,-14.423 C 214.49,61.8 198.44,53.21 180.87,53.22 Z M 67.16,200.27 C 28.94,253.94 1.07,332.6 5.45,404.1 c 32.77,25.99 64.97,40.08 95.25,42.15 16.84,1.16 33.25,-1.28 49.26,-7.65 C 107.79,418.09 69.82,391.56 39.81,363.02 l -3.98,-3.76 0.59,-5.47 c 6.9,-65 16.6,-108.87 30.74,-153.52 z"
         fill-opacity="1"
         id="path1-29"
         style="display:inline" /></g><g
       id="armor-punch"
       style="display:inline"
       class="armor-punch"><path
         d="m 126.31,7.45 c 21.4,41.89 52.66,93.15 49.3,138.45 21.4,9.34 42.38,19.41 62.41,30 3.25,-24.75 2.94,-50.87 0,-77.4 C 206.66,61.5 165.54,26.68 126.31,7.45 Z M 15.23,10.23 c 17.77,25.97 31,56.22 28.99,86.48 37.67,11.96 75.8,25.7 112.82,41.22 -1.89,-31.25 -15,-59.01 -27.58,-84.31 C 93.79,33.45 51.66,20.02 15.23,10.23 Z m 403.84,23.33 c 24.23,46.02 40.8,99.86 37.02,122.31 -10.59,-15.31 -29.47,-54.86 -92.72,-71.88 43,43.14 71.32,121.28 63.77,144.15 -15.63,-38.29 -40.8,-57.8 -84.44,-74.47 19.62,25.59 33.04,59.16 38.08,92.2 30.73,18.25 57.9,39.23 81.92,60.31 10.07,-0.84 19.72,7.76 22.97,15.32 2.94,7.45 3.57,16.15 1.68,25.49 -2.94,9.54 -6.92,18.25 -13.11,24.44 -5.67,24.96 -11.43,44.68 -22.24,64.09 l -61.15,15.63 c -2.41,34.93 -66.71,22.55 -85.38,10.59 -24.02,-15.42 -63.99,-52.13 -59.37,-85.07 -30.84,-3.67 -62,-14.26 -86.75,-30.63 19.72,42.38 41.01,65.98 80.35,78.88 -22.24,9.23 -102.27,-13.42 -148.22,-53.18 21.3,61.89 62.1,77.83 78.36,87.27 -22.24,5.35 -77.2,-7.23 -124.89,-28.11 111.15,119.06 447.44,53.81 447.44,53.81 0,0 57.58,-345.31 -73.32,-451.15 z M 254.38,77.54 c 5.46,36.37 6.82,73.08 1.16,107.91 31.46,19.51 45.84,28.11 67.34,43.01 -11.02,-72.7 -37.24,-109.93 -68.5,-150.92 z M 5,104.69 c 23.85,60.09 23.67,111.7 31.63,163.83 58.21,15 118.21,44.48 169.5,70.81 14.16,-43.53 41.23,-86.12 64.51,-122.94 C 193.86,169.19 96.41,131.53 5,104.69 Z m 61.99,41.74 c 25.54,27.06 47.68,56.75 52.19,88.32 -11.44,20.45 -43.59,25.28 -61.63,25.8 l -0.36,-18.88 c 14.07,-1.36 32.37,-0.1 42.27,-11.01 C 95.47,207.27 80.55,183.88 54.4,160.49 Z m 109.04,46.05 c 20.45,20.03 30.21,44.16 34.19,69.23 -11.33,24.86 -45,30.42 -62.09,28.74 l 2.09,-18.67 c 23.08,2.62 35.77,-4.2 40.39,-12.38 -3.57,-19.51 -7.76,-36.19 -26.96,-52.66 z m 110.56,34.09 c -23.82,37.76 -50.56,80.56 -63.46,121.47 8.81,4.4 17.3,8.81 25.38,13 9.54,-43.43 39.12,-81.29 64.51,-116.01 -8.39,-6.29 -17.2,-12.48 -26.43,-18.46 z m 50.34,17.3 c -28,39.86 -61.67,80.88 -70.38,123.99 l 44.37,3.15 c 12.06,-19.2 29.16,-22.03 49.93,-24.23 3.99,9.96 27.8,28.22 35.87,32.94 5.14,-2.21 9.97,-5.25 15.32,-8.71 7.97,15.42 21.08,27.38 32.09,37.87 3.89,-9.23 6.82,-19.09 9.13,-29.16 -8.29,-0.74 -16.57,-9.13 -19.3,-15.32 -3.04,-7.45 -3.57,-16.26 -1.68,-25.49 2.73,-8.91 6.61,-17.72 12.17,-23.5 -30.73,-26.33 -66.08,-51.71 -107.52,-71.54 z m 120.84,84.03 c -2.83,2.94 -5.56,7.76 -6.82,13.74 -0.52,4.93 -1.99,17.94 5.04,19.4 7.13,-1.57 11.22,-10.48 12.69,-16.78 1.26,-5.98 0.63,-11.33 -0.73,-14.89 -2.84,-6.19 -6.72,-4.72 -10.18,-1.47 z m -103.74,40.7 c -10.49,0.21 -22.66,3.56 -24.54,12.06 5.45,19.3 28.32,30.84 41.95,41.75 0.21,-10.07 1.05,-21.61 6.61,-32.21 -9.12,-6.6 -16.78,-14.37 -24.02,-21.6 z m -87.16,18.25 c 5.87,15.42 14.68,26.64 25.69,40.38 14.48,-3.46 22.35,-11.22 29.16,-19.4 -5.87,-6.4 -10.48,-12.07 -14.79,-18.15 z m 138.87,9.54 c -3.46,1.58 -7.23,2.94 -11.32,3.88 -3.26,8.19 -3.15,19.51 -3.99,31.47 l 39.23,-10.07 c -8.29,-7.44 -17.41,-15.52 -23.92,-25.28 z m -71.53,25.7 c -6.19,6.93 -14.48,14.58 -26.23,19.72 13.43,11.96 67.14,16.47 62.52,6.19 -14.27,-8.39 -26.54,-16.57 -36.29,-25.91 z"
         fill-opacity="1"
         id="path1-20"
         style="display:inline" /></g><g
       id="hammer-break"
       style="display:inline"
       class="hammer-break"><path
         d="m 210,25.5 -53.03,47.89 108.85,120.5 26.08,-23.63 c -9.2,-10.26 -16.68,-19.56 -20.96,-30.9 -4.6,-12.61 -3.85,-26.94 1.93,-44.27 z m 241.54,17.34 -93.99,83.8 -11.34,-41.17 -38.49,99.44 c 0,0 44.17,-12.51 66.29,-18.71 v 34.86 L 505,115.95 403.31,142.36 Z M 179.31,126.85 5,284.24 l 23.62,26.2 174.21,-157.6 z m 69.94,103.18 v 39.13 l 57.2,59.89 -7.07,24.59 61.28,61.14 -13.7,13.7 -12.83,-12.83 -51.53,29.19 -9.41,-16.69 46.83,-26.52 -26.73,-26.73 -7.06,24.92 -18.6,-5.35 17.22,-60.08 -35.6,-37.32 V 484.5 H 503.72 V 230.03 H 351.77 l 20.11,47.37 58.6,6.63 41.58,-37.32 12.83,14.33 -18.38,16.57 13.68,40.63 -18.17,6.2 -11.12,-32.93 -14.01,12.62 -56.36,-6.42 19.69,46.3 -24.81,32.94 -15.39,-11.55 18.17,-24.18 -31.75,-74.51 -26.09,16.14 -10.05,-16.25 28.44,-17.64 0.53,0.96 -8.44,-19.89 z"
         fill-opacity="1"
         id="path1-48"
         style="display:inline" /></g><g
       id="punch-blast"
       style="display:inline"
       class="punch-blast"><path
         d="M 83.71,5 C 187.07,155.32 97.22,144 56.02,156.75 97.13,212.83 73.55,265.51 8.85,298.52 64.48,320.86 138.41,330.79 53.39,448.68 137.72,400.97 196.14,396.94 188.11,505 249.36,443.02 329.1,411.78 408.58,464.17 399.51,385.85 422,351.55 500.65,385.33 416.32,307.97 451.16,262.03 501.14,217.03 414.77,213.6 402.67,147.63 405.84,68.76 353.72,125.47 314.19,119.36 295.63,8.4 259.81,89.84 211.57,141.82 83.71,5 Z m 116.96,115.87 c 17.06,0.37 27.09,12.92 36.74,26.14 l -63.06,109.22 c -21.64,2.1 -37.42,-4.85 -44.27,-25.56 l 63.05,-109.23 c 2.04,-0.34 4,-0.53 5.87,-0.57 z m 73.16,11.86 c 17.06,0.38 27.09,12.93 36.74,26.15 l -70.9,126.13 c -21.65,2.11 -37.42,-4.86 -44.28,-25.57 l 70.9,-126.13 c 2.04,-0.34 3.99,-0.53 5.87,-0.58 z m 62.21,33.96 c 17.06,0.38 27.09,12.93 36.74,26.15 L 302.9,317.4 c -21.65,2.09 -37.42,-4.86 -44.28,-25.56 l 69.87,-124.57 c 2.05,-0.34 4.01,-0.53 5.87,-0.57 h 1.68 z m 49.1,58.54 c 17.78,0.1 28.35,12.68 38.53,25.94 L 364.8,353.14 c -21.23,1.37 -36.94,-5.69 -44.29,-25.57 l 58.88,-101.96 c 2,-0.28 3.92,-0.39 5.75,-0.38 z m -263.52,40.15 112.15,50.35 c 3.19,22.98 -2.95,41.11 -23.27,51.83 L 98.35,317.21 c -4.78,-22.91 8.76,-37.61 23.27,-51.83 z"
         fill-opacity="1"
         id="path1-83"
         style="display:inline" /></g><g
       id="shatter"
       style="display:inline"
       class="shatter"><path
         d="m 327.26,5 -40.85,46.7 -1.12,112.52 53.98,-98.37 z M 201.82,18.16 193.34,92.2 247.81,189.83 246.2,78.02 201.82,18.17 Z m -138.33,34.28 36.4,76.29 108.02,79.84 -38.74,-81 z m 375.59,20.79 -68.35,29.65 -57.33,96.03 96.02,-57.32 z m 0.29,93.56 -77.02,54.49 91.17,-2.63 46.7,-44.16 z m -163.35,21.95 -12.3,39.32 -36.88,-30.72 13.52,52.25 -52.86,19.03 51.64,7.99 -12.3,59.62 30.65,-37.02 16.4,20.91 -0.35,-47.81 36.91,7.99 -12.29,-27.63 44.22,-42.43 -47.3,12.29 z m -266.22,5.43 94.23,52.31 97.4,-0.96 -83.86,-49.53 -107.78,-1.82 z m 386.75,49.07 -60.24,21.34 96.64,16.29 63.99,-22.59 z M 75.2,276.22 28.5,317.04 89.35,329.08 166.39,280.12 75.2,276.23 Z m 250.82,16.63 80.2,77.92 73.72,10.94 -46.35,-58.34 -107.58,-30.52 z m -110.11,4.02 -91.37,51.52 -59.73,99.53 99.52,-59.73 z m 77.5,2.69 16.24,106.97 L 385,484.58 359.36,372.99 293.4,299.56 Z m -32.77,41.91 -22.59,64.04 16.33,96.62 21.34,-60.23 z m -45.38,25.61 -55.85,77.07 6.62,60.85 44.99,-46.71 z"
         fill-opacity="1"
         id="path1-22"
         style="display:inline" /></g><g
       id="energize"
       style="display:inline"
       class="energize"><path
         d="m 279.2,5.01 -22.22,67.9 -58,-37.58 6.81,91.96 L 116.16,68.34 166.49,52.67 90.575,6.58 H 6.865 v 66.73 l 102.105,48.55 -61.905,18.43 135.805,82.3 -99.965,3.39 77.845,49.64 -108.235,44.06 88.485,26.13 -70.345,82.4 101.715,-26.63 11.8,103.42 68.56,-80.82 49.9,80.2 19.32,-76.73 50.11,26.04 -11.14,-123.25 89.15,54.02 -53.16,7.64 105.14,73.04 1.08,-86.9 -66.68,-56.3 57.91,-4.84 -106.3,-69.92 89.7,-40.71 -76.13,-25.62 74.23,-36.47 -61,-21.13 L 461.76,69 376.53,84.11 382.82,9.68 318.41,71.3 279.2,5 Z m -1.48,76.11 9.48,2.53 71.86,19.25 9.51,2.57 -2.53,9.51 -2.4,8.95 23.1,6.2 9.51,2.54 -2.57,9.51 -68.49,255.71 -2.54,9.51 -9.51,-2.57 -137.11,-36.73 -9.51,-2.54 2.53,-9.51 68.54,-255.71 2.53,-9.48 9.5,2.54 23.12,6.18 2.41,-8.95 z m 13.76,23.96 -5.03,18.73 -18.84,-5.04 v -0.14 l -13.59,-3.65 -63.44,236.66 118.08,31.63 63.44,-236.65 -13.6,-3.65 v 0.15 l -18.87,-5.06 5.04,-18.73 -53.2,-14.25 z m -23.31,34.23 79.53,21.3 -28.47,106.19 -25.05,-11.29 18.56,-35.52 -58.85,-27.32 z m -29.2,108.92 25.52,11.53 -14.32,27.06 55.66,29.96 -11.29,42.14 -79.5,-21.3 z"
         fill-opacity="1"
         id="path1-227"
         style="display:inline" /></g><g
       id="jester-hat"
       style="display:inline"
       class="jester-hat"><path
         d="m 281.87,5.5063 c -26.52,0.17 -63.68,34.8397 -90.76,72.6697 4.19,3.55 8.23,7.41 12.12,11.54 9.94,10.574 19.12,22.944 27.56,36.484 12.14,-18.98 24.73,-35.634 37.65,-49.404 20.1,-21.41 41.29,-36.26 63.29,-40.85 C 318.32,17.696 301.94,6.2363 281.87,5.5063 Z M 348.1,53.376 h -2.64 -0.1 -0.11 c -19.08,0.27 -40.82,12.7 -63.04,36.36 -22.22,23.654 -44.52,58.014 -65.01,99.144 -30.41,61.04 -56.9,137.01 -75.08,215.66 5.79,11.01 12.65,21.45 21.16,31.58 4.73,-19.24 14.9,-40.32 33.76,-54.57 l 11.76,-8.91 3.21,14.41 c 1.71,7.64 8.13,22.32 16.26,36.03 6.07,10.23 13.24,20.23 19.64,27.27 14.47,-17.07 21.96,-46.31 29.72,-65.8 l 4.66,-11.69 9.96,7.7 c 10.95,8.47 20.58,20.81 28.21,33.54 3.91,6.52 7.26,13.06 9.84,19.39 12.74,-15.69 21.49,-34.7 28.51,-53.99 -5.38,-12.69 -10.65,-25.44 -15.21,-38.04 -7.38,-20.34 -12.99,-40.33 -14.06,-59.45 -1.07,-19.12 2.65,-37.73 14.26,-53.26 8.4,-11.24 19.67,-18.75 32.46,-18.95 12.8,-0.2 25.26,6.48 37.27,18.2 18.98,18.54 38.36,50.9 58.54,99.44 C 473.48,269.79 468.72,207.79 453.7,157.58 444.29,125.92 430.78,99.1 413.06,80.876 395.9,63.206 375.2,53.206 348.1,53.326 Z m -216.21,19.16 c -4.7,0 -9.47,0.69 -14.34,1.95 -50.19,13.1 -72.2,53.204 -81.73,102.944 -4.31,22.52 -5.69,46.65 -5.54,70.26 1.64,0 3.25,0.16 4.85,0.39 1.85,-6.49 3.81,-12.71 5.99,-18.45 5.15,-13.56 11.19,-25.15 20.52,-33.03 9.31,-7.87 22.73,-10.54 35.98,-5.78 28.21,10.11 42.31,37.72 47.69,69.75 2.63,15.65 3.38,32.71 2.87,50.33 15.06,-47.17 32.76,-91.58 52.11,-130.42 6.27,-12.6 12.71,-24.58 19.31,-35.93 -9.27,-16.05 -19.41,-30.38 -30.19,-41.83 -16.81,-17.874 -34.22,-28.624 -52.84,-30.034 -1.55,-0.12 -3.11,-0.17 -4.68,-0.15 z M 376.63,228.83 c -5.85,0.1 -11.39,3.08 -17.56,11.33 -1.23,1.64 -2.33,3.34 -3.33,5.08 7.59,9.71 15.15,20.57 22.53,32.34 4.1,-1.58 8.49,-2.56 13.07,-2.81 -1.17,-13.26 -2.6,-27.88 -4.37,-43.19 -3.96,-2.01 -7.42,-2.8 -10.34,-2.75 z M 29.24,266.64 C 15.74,266.64 5,277.38 5,290.88 c 0,13.51 10.74,24.25 24.24,24.25 13.51,0 24.25,-10.74 24.25,-24.25 0,-13.5 -10.74,-24.24 -24.25,-24.24 z m 364.46,27.04 c -13.5,0 -24.25,10.74 -24.25,24.24 0,13.51 10.75,24.25 24.25,24.25 13.5,0 24.24,-10.74 24.24,-24.25 0,-13.5 -10.74,-24.24 -24.24,-24.24 z m 87.06,59.51 c -13.51,0 -24.25,10.74 -24.25,24.25 0,13.5 10.74,24.24 24.25,24.24 13.5,0 24.24,-10.74 24.24,-24.24 0,-13.51 -10.74,-24.25 -24.24,-24.25 z m -104.69,34.42 c -9.18,25.23 -21.63,51.46 -43.66,71.6 l -13.19,12.06 -2.6,-17.67 c -0.97,-6.57 -5.64,-18.48 -12.36,-29.7 -4,-6.66 -8.74,-13.07 -13.6,-18.57 -6.55,20.24 -15.43,48.31 -36.56,65.72 l -6.07,5.01 -6.04,-5.05 c -10.82,-9.04 -21.15,-23.33 -29.98,-38.2 -5.33,-9.01 -9.85,-17.96 -13.3,-26.3 -12.47,15.23 -18.68,36.22 -19.63,51.02 l -1.3,20.51 -14.76,-14.3 c -19.33,-18.75 -32.41,-38.7 -42.33,-60.05 L 108.62,455 c -0.36,6.05 -0.7,13.3 -0.36,19.48 0.35,6.43 2.46,11.54 2.09,11.12 4.37,5.03 21.17,11.98 44.58,15.35 23.43,3.35 53.25,4.28 84.52,2.99 62.55,-2.57 131.52,-14.35 167.77,-30.73 5.24,-2.37 14.62,-16.85 0.53,-37.85 v 0 z"
         fill-opacity="1"
         id="path1-52"
         style="display:inline" /></g><g
       id="card-joker"
       style="display:inline"
       class="card-joker"><path
         d="m 98.587,5.001 c -18.33,0 -33.194,19.591 -33.194,43.75 V 461.25 c 0,24.16 14.864,43.75 33.194,43.75 H 411.42 c 18.33,0 33.19,-19.59 33.19,-43.75 V 48.751 c 0,-24.159 -14.86,-43.75 -33.19,-43.75 z m 29.973,12.443 12.5,37.341 39.38,0.353 -31.65,23.432 11.83,37.56 L 128.56,93.259 96.487,116.11 108.32,78.57 76.667,55.138 116.05,54.785 Z M 376.48,148 c 8.1,10.75 14.48,23.51 19.13,36.41 4.31,11.98 7.04,24.1 7.58,35.25 -0.19,21.61 -4.46,26.44 -16.55,41.97 l -7.61,-13.05 c -12.33,-14.89 -34.98,-55 -53.84,-49.62 -7.42,6.94 -10.23,15.19 -11.73,23.63 3.29,10 5.09,20.94 5.09,32.41 0,17.38 -4.11,33.57 -11.36,47.07 25.73,5.15 65.83,21.97 65.88,44.57 -0.3,4.29 -2.09,8.72 -4.95,11.84 -12.22,14.24 -42,4.68 -51.37,11.44 0.9,7.9 4.67,16.05 4.95,22.93 0.16,4.96 -2.01,12.02 -7.4,15.9 -6.44,4.65 -14.74,5.17 -21.05,3.47 -12.27,-2.41 -21.29,-16.71 -39.47,-19.72 -15.39,3.97 -25.47,15.76 -39.48,19.72 -6.31,1.7 -14.6,1.18 -21.05,-3.47 -5.38,-3.88 -7.55,-10.95 -7.39,-15.9 -0.12,-8.12 4.67,-15.68 4.95,-22.93 -17.9,-8.85 -38.43,2.24 -51.38,-11.44 -2.86,-3.12 -4.64,-7.55 -4.95,-11.84 6.99,-31.07 40.21,-39.41 65.89,-44.57 C 193.12,288.57 189,272.38 189,255 c 0,-13.06 2.33,-25.43 6.55,-36.51 -2.67,-9.01 -3.91,-18.17 -10.72,-25.51 -9.95,-1.05 -16,7.84 -20.28,14.35 -13.27,22.16 -21.26,34.78 -37.37,52.5 -18.86,-26.59 -21.94,-56.01 -14.94,-80.67 6.89,-23.1 21.79,-44.09 43.09,-54.47 24.12,-11.09 45.32,-11.39 66.92,0.24 5.87,-14.84 11.82,-29.151 20.49,-41.141 10.95,-15.129 27.05,-29.129 49.67,-28.754 44.09,0.75 84.08,58.135 84.07,92.965 z M 294.41,75.399 c -40.63,2.739 -50.87,50.841 -62.71,81.011 l -10.74,-8.06 c -20.93,-13.99 -35.31,-15.6 -56.67,-5.26 -14.7,7.15 -26.93,23.43 -32.45,41.91 -3.84,12.88 -4.28,26.4 -1.08,38.24 10.74,-15.4 17.96,-34.18 32.18,-44.52 8.51,-9.07 29.85,-9.66 40.28,4.43 5.5,7.98 8.45,16.52 10.79,25.26 h 82.02 c 0.67,-2.2 1.21,-4.27 2.29,-6.85 3.35,-8.04 8.82,-18.49 20.9,-22.17 20.56,-4.39 36.92,8.08 49.43,21.04 5.14,5.35 9.65,11.01 13.75,16.49 -0.78,-7.71 -2.82,-16.65 -6.03,-25.57 -14.92,-41.71 -43.06,-57.99 -79.99,-36.37 2.91,-18.67 19.17,-40.59 52.56,-30.65 -10.33,-19.47 -34.5,-48.26 -54.53,-48.931 z M 213.59,228.86 c -2.62,7.91 -4.13,16.77 -4.13,26.14 0,18.01 5.55,34.13 13.93,45.3 8.37,11.16 19.01,17.2 30.39,17.2 11.37,0 22.01,-6.04 30.38,-17.2 8.38,-11.17 13.93,-27.29 13.93,-45.3 0,-9.37 -1.51,-18.23 -4.13,-26.14 z m 12.91,53.41 h 54.55 c 0,0 -9.09,15.91 -27.27,15.91 -18.19,0 -27.28,-15.91 -27.28,-15.91 z m -12.66,38.15 c -15.75,3.8 -57.23,10.12 -58.9,24.34 10.93,2.21 23.22,0.95 32.95,2.54 6.81,1.16 14.57,3.77 19.64,10.81 3.84,5.32 4.06,11.48 3.45,16.15 -0.61,6.7 -3.77,12 -4.52,18.55 18.13,-2.94 32.12,-19.92 47.32,-20.76 18.18,-0.8 33.3,19.77 47.31,20.76 -1.02,-6.35 -3.71,-12.68 -4.52,-18.55 -0.61,-4.67 -0.38,-10.83 3.46,-16.15 5.06,-7.04 12.83,-9.65 19.63,-10.81 11.08,-2.54 22.71,0.45 32.96,-2.54 -6.56,-14.92 -45.24,-22.11 -58.91,-24.34 -10.76,10.73 -24.65,17.54 -39.93,17.54 -15.29,0 -29.16,-6.81 -39.94,-17.54 z m 133.1,73.47 32.06,22.85 32.06,-22.85 -11.83,37.54 31.65,23.44 -39.38,0.35 -12.51,37.34 -12.5,-37.34 -39.37,-0.35 31.65,-23.44 z"
         fill-opacity="1"
         id="path1-10"
         style="display:inline" /></g><g
       style="display:inline"
       id="compete"
       class="compete"><path
         id="XMLID_2_"
         style="fill-opacity:1"
         d="m 455.46,80.222 c -3.47,0 -6.98,0.526 -10.45,1.614 -18.56,5.789 -28.88,25.714 -23.05,44.274 5.82,18.57 25.72,28.85 44.28,23.02 18.56,-5.79 28.87,-25.72 23.05,-44.28 C 484.55,89.8 470.52,80.187 455.46,80.222 Z M 54.52,81.274 c -15.053,0 -29.08,9.544 -33.805,24.626 -5.815,18.56 4.472,38.49 23.037,44.28 18.566,5.83 38.47,-4.45 44.288,-23.01 C 93.854,108.61 83.568,88.678 65.004,82.888 61.523,81.801 57.993,81.274 54.52,81.274 Z m 397.61,76.036 c -3.72,0 -7.51,0.73 -11.37,1.89 l -137.79,43.65 c -4.92,1.54 -8.5,5.12 -10.74,9.61 l -0.22,1.23 H 217.8 v -0.35 c -2.24,-4.49 -5.81,-8.07 -10.73,-9.62 L 69.252,160.25 c -10.291,-3.12 -20.132,-2.45 -29.75,2.25 -9.618,4.7 -16.103,12.07 -19.235,22.38 -0.894,2.92 -1.343,6.04 -1.343,9.16 l 8.947,87.22 c 1.566,16.56 10.514,27.3 26.617,32.46 l 92.822,29.3 c 0,0 22.15,68.98 22.15,69.33 3.13,10.07 12.3,17.43 23.26,17.43 13.42,0 24.38,-10.94 24.38,-24.38 0,-4.25 -3.13,-11.83 -3.13,-11.83 -0.45,-2.03 -30.42,-85.01 -30.42,-85.01 -2.69,-5.16 -7.16,-8.74 -13.42,-10.74 l -68,-21.47 -2.01,-67.33 95.51,30.21 c 9.62,2.98 19.58,-2.03 23.18,-11.09 h 72.83 c 3.94,8.39 13.49,12.92 22.73,10.04 l 95.52,-30.21 -2.04,67.33 -67.98,21.47 c -6.26,2 -10.73,5.58 -13.42,10.74 0,0 -29.97,82.98 -30.42,85.01 0,0 -3.13,7.58 -3.13,11.83 0,13.43 10.96,24.38 24.38,24.38 10.96,0 20.13,-7.37 23.26,-17.44 0,-0.35 22.15,-69.33 22.15,-69.33 l 92.81,-29.29 c 16.1,-5.16 25.05,-15.9 26.63,-32.46 l 8.95,-87.22 c 0,-3.12 -0.46,-6.25 -1.34,-9.16 -3.12,-10.31 -9.61,-17.68 -19.26,-22.38 -6,-2.92 -12.1,-4.29 -18.35,-4.14 z" /></g><g
       id="clockwise"
       style="display:inline"
       class="clockwise"><path
         d="m 263.61,5.0008 c -14.42,0 -28.99,1.238 -43.53,3.799 C 116.68,27.041 35.52,108.2 17.279,211.6 -0.95102,315.02 47.56,419.04 138.49,471.55 c 39.79,22.97 84.06,33.98 128,33.43 56.5,-0.69 112.47,-20.46 157.72,-58.44 L 386.77,401.93 C 324.93,453.81 237.52,461.46 167.62,421.09 97.72,380.74 60.63,301.22 74.65,221.72 88.67,142.23 150.71,80.189 230.2,66.169 c 62.7,-11.06 125.4,9.68 168.91,53.231 l -57.94,57.94 H 496.52 V 21.992 L 440.28,78.229 C 393.65,31.653 330.04,5.0368 263.61,5.0008 Z"
         fill-opacity="1"
         id="path1-876"
         style="display:inline" /><path
         id="path30-7"
         style="display:inline;fill-rule:evenodd"
         d="m 337.45,255 c 0,45.54 -36.91,82.45 -82.45,82.45 -45.54,0 -82.45,-36.91 -82.45,-82.45 0,-45.54 36.91,-82.45 82.45,-82.45 45.54,0 82.45,36.91 82.45,82.45 z" /></g><g
       id="anticlockwise"
       style="display:inline"
       class="anticlockwise"><path
         d="m 241.56,0 c 14.42,0 28.97,1.2353 43.52,3.7941 C 388.49,22.039 469.65,103.2 487.89,206.61 c 18.23,103.41 -30.27,207.43 -121.21,259.94 -39.79,22.97 -84.06,33.98 -128,33.43 -56.5,-0.7 -112.47,-20.46 -157.715,-58.44 L 118.4,396.91 c 61.84,51.89 149.25,59.54 219.15,19.18 C 407.44,375.74 444.53,296.21 430.52,216.73 416.5,137.24 354.46,75.186 274.96,61.167 212.27,50.108 149.57,70.854 106.06,114.4 L 164,172.34 H 8.6513 V 16.99 L 64.896,73.232 C 111.52,26.657 175.13,0.0392 241.56,0 Z"
         fill-opacity="1"
         id="path1-956"
         style="display:inline" /><path
         id="path30"
         style="display:inline;fill-rule:evenodd"
         d="m 337.45,255 c 0,45.54 -36.91,82.45 -82.45,82.45 -45.54,0 -82.45,-36.91 -82.45,-82.45 0,-45.54 36.91,-82.45 82.45,-82.45 45.54,0 82.45,36.91 82.45,82.45 z" /></g><g
       id="cancel"
       style="display:inline"
       class="cancel"><path
         d="M 255,0 C 114.17,0 0,114.17 0,255 0,395.83 114.17,510 255,510 395.83,510 510,395.83 510,255 510,114.17 395.83,0 255,0 Z m 0,63.75 c 105.62,0 191.25,85.63 191.25,191.25 0,105.62 -85.63,191.25 -191.25,191.25 C 149.38,446.25 63.75,360.62 63.75,255 63.75,149.38 149.38,63.75 255,63.75 Z m -85.67,63.75 c -1.03,0 -2.12,0.12 -3.25,0.33 v 0 c -19.43,3.65 -48.09,36.91 -35.46,49.54 l 77.73,77.69 -77.73,77.7 c -15.54,15.54 31.1,62.19 46.65,46.65 l 77.73,-77.72 77.73,77.72 c 15.55,15.54 62.19,-31.11 46.65,-46.65 l -77.73,-77.7 77.73,-77.69 c 15.54,-15.54 -31.1,-62.15 -46.65,-46.62 L 255,208.42 177.27,130.72 c -2.19,-2.17 -4.85,-3.2 -7.94,-3.22 z"
         fill-opacity="1"
         id="path1-85"
         style="display:inline" /></g><g
       style="display:inline;fill-opacity:1"
       id="opposite-arrows"
       class="opposite-arrows"><path
         d="m 133.44,301.13 c 9.9,9.9 17.93,6.57 17.93,-7.42 V 245.6 h 178.26 c 5.6,0 10.14,-4.54 10.14,-10.14 V 78.915 c 0,-5.6 -4.54,-10.142 -10.14,-10.142 H 151.37 V 20.67 c 0,-13.9979 -8.03,-17.3264 -17.93,-7.425 L 7.4268,139.26 c -9.9019,9.9 -9.9019,25.96 0,35.85 z"
         id="path1-95"
         style="display:inline;fill-opacity:1" /><path
         d="m 376.56,208.87 c -9.9,-9.91 -17.92,-6.58 -17.92,7.42 V 264.4 H 180.37 c -5.6,0 -10.14,4.54 -10.14,10.14 v 156.55 c 0,5.59 4.55,10.14 10.14,10.14 h 178.26 v 48.1 c 0,14 8.02,17.32 17.93,7.43 L 502.58,370.74 c 9.89,-9.91 9.89,-25.95 0,-35.85 z"
         id="path2-4"
         style="display:inline;fill-opacity:1" /></g><g
       style="display:inline;fill-opacity:1"
       id="bullet-ammo"
       class="bullet-ammo"><path
         d="m 152.81,259.47 c 0,-0.55 -0.6,-1.09 -0.7,-1.64 0,-0.12 0,-0.23 -0.1,-0.35 -0.1,-0.48 -0.24,-0.95 -0.42,-1.41 l -0.1,-0.16 h 0.54 l -17.24,-44.6 V 138.84 C 134.79,80.897 97.682,7.7746 96.122,4.6925 c -3.155,-6.255 -13.149,-6.255 -16.304,0 C 78.259,7.7746 41.958,80.897 41.958,138.84 v 72.47 L 23.391,255.9 v 0 l -0.241,0.16 c -0.184,0.46 -0.402,0.93 -0.51,1.41 -0.03,0.12 -0.09,0.23 -0.112,0.35 -0.101,0.55 0.352,1.09 0.351,1.64 h 0.512 v 213.52 c 0,5.13 2.321,9.28 9.284,9.28 v 18.57 c 0,5.13 3.08,9.16 8.206,9.16 h 92.839 c 5.12,0 10.36,-4.03 10.36,-9.16 v -18.57 c 4.64,0 9.27,-4.15 9.27,-9.28 V 259.51 h -0.54 z M 60.524,138.84 c 0,-37.07 17.183,-82.829 27.854,-107.668 10.672,24.821 27.842,70.548 27.842,107.668 v 9.15 H 60.524 Z m 0,27.72 H 116.22 V 203.7 H 60.524 Z m -4.074,55.7 h 61.69 l 11.14,27.85 H 45.309 Z m 69.06,269.21 H 51.24 v -9.28 h 74.27 z m 9.28,-27.84 H 41.957 V 268.68 h 92.833 z"
         id="path1-39"
         style="display:inline;fill-opacity:1" /><path
         d="m 487.01,259.47 c 0,-0.55 -0.61,-1.09 -0.71,-1.64 0,-0.12 0,-0.23 -0.1,-0.35 -0.11,-0.48 -0.24,-0.95 -0.42,-1.41 l -0.1,-0.16 h 0.54 l -17.29,-44.59 v -72.47 c 0,-57.942 -37.12,-131.0654 -38.67,-134.1476 -3.16,-6.2549 -13.15,-6.2549 -16.31,0 C 412.4,7.7846 376.1,80.908 376.1,138.85 v 72.47 l -18.57,44.59 v 0 l -0.24,0.16 c -0.19,0.46 -0.41,0.93 -0.52,1.41 0,0.12 -0.1,0.23 -0.11,0.35 -0.1,0.55 0.36,1.09 0.35,1.64 h 0.52 v 213.52 c 0,5.13 2.32,9.28 9.28,9.28 v 18.57 c 0,5.13 3.08,9.16 8.21,9.16 h 92.82 c 5.13,0 10.36,-4.03 10.36,-9.16 v -18.57 c 4.65,0 9.29,-4.15 9.29,-9.28 V 259.51 h -0.54 z m -92.3,-120.63 c 0,-37.07 17.19,-82.829 27.86,-107.668 10.68,24.821 27.85,70.548 27.85,107.668 v 9.15 h -55.71 z m 0,27.72 h 55.71 v 37.14 h -55.71 z m -4.07,55.7 h 61.69 l 11.15,27.85 H 379.5 Z m 69.06,269.21 h -74.26 v -9.28 h 74.26 z m 9.28,-27.84 H 376.15 V 268.68 h 92.83 z"
         id="path4-3"
         style="display:inline;fill-opacity:1" /><path
         d="m 319.91,259.47 c 0,-0.55 -0.61,-1.09 -0.71,-1.64 0,-0.12 0,-0.23 -0.1,-0.35 -0.1,-0.48 -0.23,-0.95 -0.41,-1.41 l -0.1,-0.16 h 0.53 L 301.83,211.32 V 138.85 C 301.83,80.908 264.72,7.7846 263.16,4.7024 260,-1.5525 250.01,-1.5525 246.85,4.7024 245.3,7.7846 209,80.908 209,138.85 v 72.47 l -18.57,44.59 v 0 l -0.24,0.16 c -0.19,0.46 -0.41,0.93 -0.51,1.41 0,0.12 -0.1,0.23 -0.12,0.35 -0.1,0.55 0.36,1.09 0.36,1.64 h 0.51 v 213.52 c 0,5.13 2.32,9.28 9.28,9.28 v 18.57 c 0,5.13 3.08,9.16 8.21,9.16 h 92.83 c 5.12,0 10.37,-4.03 10.37,-9.16 v -18.57 c 4.63,0 9.27,-4.15 9.27,-9.28 V 259.51 h -0.54 z M 227.62,138.84 c 0,-37.07 17.18,-82.829 27.85,-107.668 10.68,24.821 27.85,70.548 27.85,107.668 v 9.15 h -55.7 z m 0,27.72 h 55.7 v 37.14 h -55.7 z m -4.07,55.7 h 61.69 l 11.14,27.85 H 212.4 Z m 69.06,269.21 h -74.27 v -9.28 h 74.27 z m 9.28,-27.84 H 209.06 V 268.68 h 92.83 z"
         id="path2-1"
         style="display:inline;fill-opacity:1" /></g><g
       style="display:inline;fill-opacity:1"
       id="bullets"
       class="bullets"><path
         d="m 149.48,492.41 h -8.79 v -17.58 -131.9 -17.58 c 0,-30.9 -25.39,-87.94 -61.552,-87.94 -36.166,0 -61.552,57.04 -61.552,87.94 v 17.58 131.9 17.58 H 8.7932 c -4.8626,0 -8.7931,3.94 -8.7931,8.8 0,4.85 3.9305,8.79 8.7931,8.79 h 8.7928 123.104 8.79 c 4.86,0 8.8,-3.94 8.8,-8.79 0,-4.86 -3.94,-8.8 -8.8,-8.8 z m -26.38,0 H 35.173 V 474.83 H 123.1 Z m 0,-149.48 H 35.173 V 325.35 C 35.173,299.51 56.9,255 79.138,255 c 22.242,0 43.962,44.51 43.962,70.35 z"
         id="path1-55"
         style="display:inline;fill-opacity:1" /><path
         d="m 325.35,492.41 h -8.8 v -17.58 -131.9 -17.58 c 0,-30.9 -25.38,-87.94 -61.55,-87.94 -36.17,0 -61.55,57.04 -61.55,87.94 v 17.58 131.9 17.58 h -8.8 c -4.86,0 -8.79,3.94 -8.79,8.8 0,4.85 3.93,8.79 8.79,8.79 h 8.8 123.1 8.8 c 4.86,0 8.79,-3.94 8.79,-8.79 0,-4.86 -3.93,-8.8 -8.79,-8.8 z m -26.38,0 h -87.94 v -17.58 h 87.94 z m 0,-149.48 h -87.94 v -17.58 c 0,-25.84 21.73,-70.35 43.97,-70.35 22.24,0 43.97,44.51 43.97,70.35 z"
         id="path2-8"
         style="display:inline;fill-opacity:1" /><path
         d="m 501.21,492.41 h -8.8 v -17.58 -131.9 -17.58 c 0,-30.9 -25.38,-87.94 -61.55,-87.94 -36.16,0 -61.55,57.04 -61.55,87.94 v 17.58 131.9 17.58 h -8.79 c -4.87,0 -8.8,3.94 -8.8,8.8 0,4.85 3.93,8.79 8.8,8.79 h 8.79 123.1 8.8 c 4.86,0 8.79,-3.94 8.79,-8.79 0,-4.86 -3.93,-8.8 -8.79,-8.8 z m -26.38,0 H 386.9 v -17.58 h 87.93 z m 0,-149.48 H 386.9 v -17.58 c 0,-25.84 21.72,-70.35 43.96,-70.35 22.24,0 43.97,44.51 43.97,70.35 z"
         id="path3-1"
         style="display:inline;fill-opacity:1" /><path
         d="M 228.62,184.65 V 167.07 35.173 17.586 h 8.79 c 4.87,0 8.8,-3.939 8.8,-8.7928 0,-4.8538 -3.93,-8.7931 -8.8,-8.7931 h -8.79 -123.1 -8.796 c -4.862,0 -8.793,3.9393 -8.793,8.7931 0,4.8538 3.931,8.7928 8.793,8.7928 h 8.796 v 17.587 131.897 17.58 c 0,30.89 25.38,87.94 61.55,87.94 36.17,0 61.55,-57.05 61.55,-87.94 z M 123.1,17.586 h 87.93 V 35.173 H 123.1 Z M 167.07,255 c -22.24,0 -43.97,-44.51 -43.97,-70.35 v -17.58 h 87.93 v 17.58 c 0,25.84 -21.72,70.35 -43.96,70.35 z"
         id="path4-4"
         style="display:inline;fill-opacity:1" /><path
         d="M 404.48,184.65 V 167.07 35.173 17.586 h 8.8 c 4.86,0 8.79,-3.939 8.79,-8.7928 0,-4.8538 -3.93,-8.7931 -8.79,-8.7931 h -8.8 -123.1 -8.79 c -4.87,0 -8.8,3.9393 -8.8,8.7931 0,4.8538 3.93,8.7928 8.8,8.7928 h 8.79 v 17.587 131.897 17.58 c 0,30.89 25.38,87.94 61.55,87.94 36.17,0 61.55,-57.05 61.55,-87.94 z M 298.97,17.586 H 386.9 V 35.173 H 298.97 Z M 342.93,255 c -22.24,0 -43.96,-44.51 -43.96,-70.35 v -17.58 h 87.93 v 17.58 c 0,25.84 -21.73,70.35 -43.97,70.35 z"
         id="path5-7"
         style="display:inline;fill-opacity:1" /></g><g
       style="display:inline;fill-opacity:1"
       id="bullets-ammo"
       class="bullets-ammo"><path
         d="M 69.96,54.276 56.384,23.655 42.806,54.276 C 41.944,56.22 23.753,97.923 19.887,158.98 H 92.879 C 89.013,97.923 70.823,56.22 69.96,54.276 Z"
         id="path1-8"
         style="display:inline;fill-opacity:1" /><path
         id="polygon2"
         style="display:inline"
         d="M 99.05,218.39 V 188.68 H 13.714 v 29.71 h 7.103 76.377 z" /><path
         id="polygon4"
         style="display:inline"
         d="M 5.0006,486.35 H 107.76 V 248.09 H 103.65 14.357 5.0006 Z" /><path
         d="M 202.4,54.276 188.83,23.655 175.24,54.276 c -0.86,1.944 -19.05,43.647 -22.92,104.704 h 73 C 221.46,97.923 203.26,56.22 202.4,54.276 Z"
         id="path6-3"
         style="display:inline;fill-opacity:1" /><path
         id="polygon8"
         style="display:inline"
         d="m 159.4,218.39 h 72.09 v -29.71 h -85.34 v 29.71 z" /><path
         id="polygon10"
         style="display:inline"
         d="M 240.18,248.09 H 152.94 137.47 V 486.35 H 240.18 Z" /><path
         d="M 334.81,54.276 321.23,23.655 307.66,54.276 C 306.8,56.22 288.6,97.923 284.74,158.98 h 72.99 C 353.87,97.923 335.67,56.22 334.81,54.276 Z"
         id="path12-7"
         style="display:inline;fill-opacity:1" /><path
         id="polygon20"
         style="display:inline"
         d="m 436.5,218.39 h 59.82 v -29.71 h -85.34 v 29.71 z" /><path
         id="polygon22"
         style="display:inline"
         d="M 402.3,486.35 H 505 V 248.09 H 430.04 402.3 Z" /><path
         d="M 467.23,54.276 453.64,23.655 440.07,54.276 c -0.86,1.944 -19.06,43.647 -22.92,104.704 h 72.99 C 486.28,97.923 468.08,56.22 467.23,54.276 Z"
         id="path18-1"
         style="display:inline;fill-opacity:1" /><path
         id="polygon16"
         style="display:inline"
         d="M 269.88,486.35 H 372.59 V 248.09 h -81.1 -21.61 z" /><path
         id="polygon14"
         style="display:inline"
         d="m 297.95,218.39 h 65.96 v -29.71 h -85.35 v 29.71 z" /></g><g
       class=""
       transform="matrix(1.0218,0,0,1.0218,-1.8877,-5.5451)"
       id="d100"
       style="display:inline;fill:#ffffff;fill-opacity:1"><path
         id="path1-76"
         style="display:inline;fill-opacity:1;fill-rule:nonzero"
         d="M 175.14,5.4306 86.246,159.2 175.14,200.49 264.09,159.2 Z m 21.77,7.0284 76.59,134.751 4.58,8.02 68.68,17.21 -44.02,-47.02 c 0.24,1.19 0.44,2.42 0.34,3.65 -0.22,3.44 -2.52,5.41 -6.91,5.9 -0.41,0.1 -0.81,0.1 -1.22,0.1 -3.98,0.16 -8,-1.07 -12.05,-3.71 -4.49,-2.92 -8.36,-6.7 -11.42,-11.1 -1.86,-2.52 -3.28,-5.33 -4.2,-8.32 -0.71,-2.55 -0.54,-4.54 0.52,-5.99 -2.79,-1.3 -5.37,-3.04 -7.61,-5.17 -1.76,-1.687 -3.35,-3.536 -4.78,-5.526 -2.76,-3.89 -4.02,-7.333 -3.77,-10.313 0.25,-2.99 2.33,-4.701 6.24,-5.151 0.37,-0.1 0.82,-0.1 1.1,-0.1 h 0.9 z m -43.49,0.05 -59.844,63.869 c 2.678,0.81 4.129,2.669 4.269,5.629 0.17,3.56 -1.461,8.052 -4.879,13.472 -2.54,4.07 -5.701,7.721 -9.381,10.811 -3.04,2.46 -6.269,4.66 -9.674,6.58 l -4.815,2.81 c -3.037,1.76 -5.144,3.05 -6.336,3.85 -1.268,0.85 -2.46,1.81 -3.563,2.87 l 15.72,1.78 -6.136,9.73 -24.679,-2.82 c 2.508,-3.9 5.4,-7.54 8.634,-10.86 3.378,-3.64 8.268,-7.33 14.665,-11.08 5.565,-3.29 9.325,-5.67 11.285,-7.14 2.88,-2.14 5.36,-4.78 7.29,-7.8 1.28,-1.82 2.13,-3.89 2.47,-6.082 0.15,-1.68 -0.559,-2.612 -2.129,-2.782 h -0.111 c -0.36,-0.1 -0.72,-0.1 -1.08,0 L 3.5467,172.58 72.575,154.74 l 4.282,-7.55 z m 110.36,75.728 c -1.55,0.18 -2.29,0.91 -2.39,2.202 0,1.29 0.68,2.991 2.16,5.111 1.23,1.82 2.81,3.379 4.64,4.61 1.32,0.95 2.92,1.46 4.56,1.46 h 0.38 c 1.57,-0.18 2.35,-0.94 2.35,-2.27 0,-1.33 -0.69,-2.952 -2.05,-4.892 -0.34,-0.45 -0.68,-0.919 -1.02,-1.349 l -1.83,-1.95 c -0.59,-0.56 -1.23,-1.06 -1.91,-1.51 -1.31,-0.932 -2.88,-1.412 -4.5,-1.412 z M 146.72,102.72 c 8.75,0 14.9,3.08 18.43,9.25 3.52,6.17 5.29,14.93 5.29,26.29 0,11.35 -1.77,20.1 -5.29,26.24 -3.53,6.13 -9.68,9.21 -18.43,9.21 -8.77,0 -14.92,-3.07 -18.44,-9.21 -3.53,-6.13 -5.3,-14.88 -5.3,-26.24 0,-11.35 1.77,-20.11 5.3,-26.28 3.52,-6.17 9.67,-9.25 18.44,-9.26 z m 56.84,0.16 c 8.76,0 14.91,3.08 18.43,9.24 3.53,6.18 5.29,14.94 5.29,26.29 0,11.36 -1.76,20.11 -5.29,26.25 -3.52,6.13 -9.67,9.2 -18.43,9.2 -8.77,0 -14.91,-3.06 -18.44,-9.2 -3.53,-6.13 -5.29,-14.88 -5.29,-26.24 0,-11.36 1.76,-20.12 5.29,-26.29 3.53,-6.16 9.67,-9.25 18.44,-9.25 z m 75.27,6.75 c -1.79,0.18 -2.68,1.05 -2.68,2.58 0,1.53 0.91,3.66 2.82,6.39 v 0 c 1.56,2.32 3.54,4.32 5.84,5.91 1.5,1.14 3.33,1.78 5.22,1.78 h 0.44 c 1.74,-0.23 2.62,-1.1 2.62,-2.68 0,-1.55 -0.93,-3.65 -2.77,-6.29 -1.56,-2.37 -3.56,-4.42 -5.88,-6.04 -1.51,-1.09 -3.32,-1.68 -5.18,-1.68 z m -132.11,4.25 c -4.02,0 -6.69,1.99 -7.98,5.98 -1.29,3.98 -1.95,10.11 -1.95,18.4 0,7.94 0.66,13.99 1.95,18.15 1.29,4.16 3.95,6.25 7.98,6.25 4.01,0 6.65,-2.06 7.89,-6.25 1.25,-4.19 1.88,-10.23 1.88,-18.15 0,-8.28 1.08,-15.45 -1.88,-18.4 v 0 c -2.95,-2.95 -3.88,-5.96 -7.88,-5.96 z m 56.84,0.16 c -4.02,0 -6.68,1.98 -7.97,5.97 -1.3,3.99 -1.96,10.12 -1.96,18.41 0,7.94 0.66,13.99 1.96,18.15 1.28,4.16 3.95,6.25 7.97,6.25 4.02,0 6.65,-2.06 7.89,-6.25 1.26,-4.19 1.88,-10.24 1.88,-18.15 0,-8.29 1.08,-15.45 -1.88,-18.41 v 0 c -2.95,-2.95 -3.88,-5.96 -7.88,-5.96 z m -129.207,55.14 -63.529,16.33 83.375,87.48 c -2.477,-2.92 -4.947,-6.43 -7.412,-10.67 -5.29,-9.09 -8.12,-17.03 -8.5,-23.82 -0.39,-6.8 2.469,-12.52 8.649,-17.15 6.17,-4.64 11.928,-5.43 17.274,-2.37 5.35,3.08 10.67,9.15 15.95,18.23 5.28,9.08 8.12,17.01 8.49,23.78 0.38,6.77 -2.54,12.47 -8.68,17.12 -6.17,4.63 -11.92,5.43 -17.26,2.38 -1.87,-1.06 -3.735,-2.64 -5.598,-4.44 L 168,350.43 V 212.71 L 85.556,174.36 Z m 22.759,106.87 -2.913,-3.06 c 0.97,1.15 1.942,2.12 2.913,3.06 z m 178.548,-106.72 -10.9,5.03 -82.49,38.35 0.17,137.54 41.88,-43.49 25.78,189.47 80.7,-111.59 -44.33,-79.4 -6.04,-10.76 -32.12,-12.63 c 0.7,-2.73 -4.25,-3.57 -6.69,-5.25 -8.04,-2.26 -8.7,-9.44 -8.7,-9.44 1.62,-1.2 7.93,-3.67 7.93,-3.67 6.08,2.38 12.16,4.78 18.25,7.15 l 28.35,11.1 7.88,-3.61 140.98,-64.26 -85.93,16.68 c 1.71,2.23 1.78,4.58 0.16,7.06 -1.94,2.98 -5.89,5.67 -11.84,8.06 -4.45,1.81 -9.15,2.91 -13.94,3.26 -3.9,0.22 -7.82,0.11 -11.7,-0.33 l -5.54,-0.55 c -3.49,-0.35 -5.96,-0.55 -7.39,-0.6 -1.53,0 -3.06,0 -4.57,0.24 l 11.69,10.66 -10.67,4.28 -15.84,-14.46 3.95,-4.1 c 2.27,-0.76 4.57,-1.41 6.9,-1.93 4.87,-0.97 11,-1.09 18.38,-0.38 6.44,0.6 10.88,0.87 13.33,0.82 3.59,0 7.14,-0.73 10.48,-2.04 2.09,-0.72 4,-1.91 5.56,-3.48 1.11,-1.27 1.08,-2.44 -0.1,-3.5 l -0.1,-0.1 c -0.27,-0.24 -0.56,-0.45 -0.87,-0.63 l -51.15,8.29 53.78,-55.47 z m -53.19,27.64 c 3.93,-0.29 8.1,0.89 12.51,3.53 7.06,4.23 10.52,9.69 10.38,16.39 -0.13,6.71 -2.97,14.63 -8.41,23.85 -3.42,6.12 -7.97,11.41 -13.14,16.08 -0.41,1.55 -2.51,1.92 -3.77,2.63 -5.8,3.27 -12.24,2.79 -19.3,-1.44 -7.05,-4.23 -10.52,-9.69 -10.4,-16.36 0.11,-6.68 2.9,-14.62 8.39,-23.82 5.47,-9.2 11.12,-15.45 16.94,-18.75 2.18,-1.23 4.45,-1.93 6.8,-2.11 z m -92.81,6.24 c 4.88,0.25 9.57,2.09 13.29,5.4 3.4,3.04 6.25,6.64 8.42,10.65 l -9.81,2 c -1.04,-2.05 -2.4,-3.92 -4.04,-5.53 -2.6,-2.44 -5.42,-3.51 -8.44,-2.89 l -0.37,0.1 c -1.81,0.38 -3.32,1.58 -3.87,3.34 -0.65,1.78 -0.18,4.16 1.34,7.03 2.04,3.8 4.75,6.05 8.11,6.77 2.13,0.33 4.3,0.23 6.43,-0.16 l 1.39,-0.25 4.35,8.11 c -3.2,0.71 -5.26,1.54 -6.17,2.46 -1.61,1.58 -1.5,4.06 0.31,7.45 1.05,2.05 2.63,3.79 4.57,5.02 1.64,1.07 3.65,1.62 5.54,1.15 l 0.31,-0.1 c 2.36,-0.57 3.65,-1.67 3.81,-3.57 0.2,-1.92 -0.49,-4.3 -2.05,-7.13 l 9.28,-1.91 c 1.36,2.68 2.39,5.5 3.08,8.42 0.4,2.35 0.23,4.76 -0.48,7.04 -0.58,1.61 -1.61,3.03 -2.97,4.06 -1.8,1.25 -3.87,2.05 -6.03,2.43 l -0.89,0.15 c -4.47,0.8 -9.08,0.1 -13.12,-2.02 -4.56,-2.31 -8.27,-6.01 -10.6,-10.57 -1.81,-3.4 -2.46,-6.44 -1.95,-9.14 0.19,-1.42 0.86,-2.72 1.89,-3.71 h -0.1 c -0.94,0 -2.68,-0.47 -5.28,-1.87 -4.17,-2.36 -7.53,-5.91 -9.68,-10.2 -2.62,-4.88 -3.44,-9.48 -2.46,-13.79 0.98,-4.32 4.37,-7.24 10.25,-8.25 l 1.03,-0.19 c 1.64,-0.28 3.28,-0.38 4.91,-0.3 z m 95.19,5.12 c -1.55,0.16 -3.07,0.89 -4.55,2.2 -2.97,2.6 -6.46,7.25 -10.45,13.97 -3.82,6.43 -6.22,11.65 -7.19,15.65 -0.95,4 0.18,6.97 3.42,8.9 3.23,1.97 6.35,1.56 9.37,-1.24 3.03,-2.79 6.45,-7.39 10.26,-13.8 3.99,-6.72 8.32,-12 7.37,-15.82 v 0 c -0.95,-3.81 -0.24,-6.69 -3.47,-8.63 -1.62,-0.97 -3.2,-1.37 -4.75,-1.21 z m 35.5,4.47 10.56,1.89 c -4.69,11.16 -12.28,22.27 -22.77,33.32 -1.18,1.21 -2.94,2.43 -4.03,3.5 0,0 -13.16,1.75 -12.77,1.37 4.45,-4.07 8.61,-8.45 12.43,-13.13 3.43,-4.28 6.59,-8.78 9.45,-13.47 2.77,-4.27 5.16,-8.78 7.13,-13.48 z m 197.71,8.06 -162.15,72.5 47.84,85.55 96.27,18.67 z m -363.926,8.5 c -0.641,0.1 -1.295,0.38 -1.997,0.91 -2.83,2.13 -3.781,5.12 -2.831,8.99 0.95,3.87 3.341,9.12 7.199,15.75 3.685,6.35 6.945,10.83 9.805,13.48 2.85,2.65 5.69,2.91 8.52,0.78 2.84,-2.1 3.72,-5.16 2.65,-9.18 -1.07,-4.01 -3.45,-9.16 -7.13,-15.5 -3.86,-6.63 -6.43,-12.92 -9.88,-13.71 v 0 c -2.585,-0.6 -4.39,-1.82 -6.316,-1.5 z m 377.446,9.95 -16.88,154.05 -1,9.18 45.57,54.19 -8.12,-63.9 c -0.45,1.14 -1.08,2.21 -1.85,3.16 -2.2,2.66 -5.22,2.9 -9.07,0.73 -0.36,-0.18 -0.71,-0.39 -1.04,-0.63 -3.32,-2.2 -5.86,-5.56 -7.59,-10.07 -1.92,-5 -2.86,-10.32 -2.75,-15.68 0,-3.13 0.47,-6.24 1.47,-9.21 0.92,-2.48 2.23,-3.99 3.93,-4.54 -1.51,-2.7 -2.56,-5.62 -3.13,-8.66 -0.43,-2.4 -0.64,-4.84 -0.63,-7.28 0,-4.77 1.03,-8.29 2.98,-10.56 1.95,-2.28 4.65,-2.45 8.07,-0.52 0.35,0.16 0.71,0.42 0.94,0.59 l 0.72,0.52 z m -77.22,45.29 c 4.2,0.1 8.51,1.69 12.95,4.9 7.11,5.13 10.28,11.23 9.52,18.29 -0.76,7.07 -4.46,15.2 -11.12,24.4 -6.65,9.2 -13.2,15.26 -19.66,18.17 -6.45,2.91 -13.23,1.79 -20.33,-3.34 -7.11,-5.14 -10.29,-11.22 -9.55,-18.26 0.73,-7.04 4.43,-15.16 11.09,-24.37 6.65,-9.2 13.22,-15.26 19.69,-18.2 2.43,-1.09 4.9,-1.63 7.41,-1.59 z m 1.48,12.22 c -1.66,0 -3.34,0.66 -5.03,1.89 -3.38,2.47 -7.51,7.06 -12.36,13.77 -4.66,6.44 -7.67,11.72 -9.06,15.85 -1.39,4.14 -0.46,7.38 2.8,9.74 3.24,2.38 6.59,2.23 10.06,-0.44 3.47,-2.66 7.52,-7.19 12.15,-13.6 4.86,-6.72 7.95,-12.06 9.27,-16.02 v 0 c 1.31,-3.95 0.35,-7.1 -2.89,-9.45 -1.63,-1.18 -3.28,-1.75 -4.94,-1.72 z m -134.4,34.85 c 2.19,-0.12 4.64,0.45 7.36,1.68 l 0.91,0.45 c 5.99,2.86 10.33,8.32 11.76,14.8 0.97,4.45 1.17,9.04 0.59,13.56 l -9.12,-4.13 c 0.35,-2.27 0.34,-4.58 0,-6.84 -0.67,-3.5 -2.38,-5.93 -5.14,-7.3 l -0.34,-0.15 c -1.64,-0.84 -3.62,-0.67 -5.1,0.43 -1.57,1.07 -2.58,3.27 -3.03,6.49 -0.57,4.27 0.3,7.69 2.61,10.23 1.53,1.52 3.33,2.76 5.3,3.64 l 1.27,0.61 -1.23,9.13 c -3.01,-1.3 -5.15,-1.84 -6.44,-1.62 -2.22,0.33 -3.59,2.4 -4.11,6.21 -0.36,2.28 -0.1,4.61 0.76,6.75 0.71,1.82 2.07,3.31 3.82,4.18 l 0.29,0.12 c 2.21,1.01 3.94,0.79 5.18,-0.66 1.29,-1.45 2.13,-3.77 2.51,-6.98 l 8.65,3.89 c -0.46,2.96 -1.28,5.86 -2.44,8.62 -1.05,2.14 -2.6,4 -4.52,5.42 -1.41,0.97 -3.07,1.51 -4.78,1.55 -2.19,0 -4.34,-0.58 -6.3,-1.56 l -0.82,-0.39 c -4.07,-2.01 -7.39,-5.28 -9.44,-9.33 -2.35,-4.55 -3.19,-9.72 -2.4,-14.78 0.52,-3.81 1.78,-6.66 3.77,-8.55 0.99,-1.04 2.29,-1.71 3.71,-1.9 h -0.1 c -0.84,-0.42 -1.9,-1.96 -3.18,-4.61 -2,-4.36 -2.65,-9.21 -1.87,-13.94 0.73,-5.49 2.76,-9.7 6.09,-12.62 1.66,-1.46 3.59,-2.25 5.78,-2.36 z m 218.1,7.76 c -0.54,0.1 -1,0.35 -1.41,0.86 -0.79,1.01 -1.2,2.81 -1.24,5.4 -0.1,2.2 0.28,4.39 1.05,6.45 0.52,1.55 1.51,2.9 2.84,3.85 l 0.31,0.23 c 1.38,0.77 2.45,0.61 3.23,-0.46 0.78,-1.08 1.17,-2.8 1.21,-5.17 v -1.68 l -0.34,-2.66 c -0.15,-0.8 -0.37,-1.58 -0.66,-2.34 -0.52,-1.52 -1.51,-2.85 -2.82,-3.78 l -0.32,-0.23 c -0.68,-0.38 -1.29,-0.54 -1.82,-0.47 z m -0.61,26.08 c -0.62,0.1 -1.15,0.45 -1.6,1.07 -0.92,1.22 -1.4,3.49 -1.46,6.82 v 0 c -0.1,2.79 0.34,5.58 1.27,8.21 0.55,1.8 1.67,3.38 3.18,4.5 l 0.36,0.26 c 1.54,0.83 2.77,0.64 3.69,-0.63 0.9,-1.27 1.38,-3.51 1.44,-6.73 0.12,-2.83 -0.3,-5.66 -1.23,-8.34 -0.59,-1.77 -1.71,-3.3 -3.21,-4.4 l -0.34,-0.25 c -0.78,-0.45 -1.48,-0.63 -2.09,-0.54 z M 342.37,393 261.91,504.54 486.74,464.06 443.46,412.58 431.68,410.26 Z m 67.04,35.15 7.45,7.71 c -10.34,6.31 -23,10.86 -37.98,13.66 -9.39,1.63 -16.3,2.38 -20.74,2.25 l 18.06,18.91 -10.07,6.32 -25.6,-26.81 8.68,-5.6 c 4.42,0 8.82,-0.37 13.2,-0.96 5.99,-0.69 11.93,-1.81 17.76,-3.36 5.3,-1.46 10.49,-3.25 15.56,-5.38 4.75,-1.84 9.33,-4.1 13.68,-6.74 z"
         sodipodi:nodetypes="ccccccccccsscscccssscsccccssccsscccccssccsccccccscssssssccssssssssssssssssssssssssscssscsssssssssssssscsssssssscccssssssssccccccccccccccccccccccccccssssssccccccssccssccccccssccssssssssccsscscsccsssssscccccssccccsccsssssssssssssssccscccsccccscssscsssssssccccssscssscsssssccsssssssssssssscsssssssssscsssssscsccsssssscccssssssscsccssssssssssccssssssssssscssssscccccccccccccccscccccccscc" /></g><g
       class=""
       transform="matrix(1.0819,0,0,1.0819,-21.966,-21.966)"
       id="d20"
       style="display:inline;fill-opacity:1;fill-rule:nonzero"><path
         d="M 248,20.3 72.33,132.6 248,128.8 Z m 16,0 v 108.5 l 175.7,3.8 z m 51.4,58.9 c 6.1,3.5 8.2,7.2 15.1,4.2 10.7,0.8 22.3,5.8 27.6,15.7 4.7,4.5 1.5,12.6 -5.2,12.6 -9.7,0.1 -19.7,-6.1 -14.6,-8.3 4.7,-2 14.7,0.9 10,-5.5 -3.6,-4.5 -11,-7.8 -16.3,-5.9 -1.6,6.8 -9.4,4 -12,-0.7 -2.3,-5.8 -9.1,-8.2 -15,-7.9 -6.1,2.7 1.6,8.8 5.3,9.9 7.9,2.2 0.2,7.5 -4.1,5.1 -4.2,-2.4 -15,-9.6 -13.5,-18.3 5.8,-7.39 15.8,-4.62 22.7,-0.9 z M 206.9,75.7 c 5.5,0.5 12.3,3 10.2,9.9 -4.3,7 -9.8,13.1 -18.1,14.8 -6.5,3.4 -14.9,4.4 -21.6,1.9 -3.7,-2.3 -13.5,-9.3 -14.9,-3.4 -2.1,14.8 0.7,13.1 -11.1,17.8 V 92.3 c 9.9,-3.9 21.1,-4.5 30.3,1.3 8,4.2 19.4,1.5 24.2,-5.7 1.4,-6.5 -8.1,-4.6 -12.2,-3.4 -2.7,-8.2 7.9,-7.5 13.2,-8.8 z m 35,69.2 -186.51,4.1 71.21,192.9 z m 28.2,0 115.3,197 L 456.6,149 Z M 256,152.4 138.9,352.6 h 234.2 z m 133.3,21.1 c 13.9,8.3 21.5,26.2 22.1,43 -1.3,13.6 -0.7,19.8 -15.2,21.4 -14.5,1.6 -23.9,-19.2 -29.7,-32.6 -3.4,-9.9 -5.8,-24 1.7,-31.3 6.1,-4.8 15,-4.1 21.1,-0.5 z m -223.7,16.1 c 2.1,4 -0.5,11.4 -4.8,12.1 -4.9,0.7 -3.8,-9.3 -9.4,-11.6 -6.9,-2.3 -13.6,5.6 -15,11.6 10.4,-4 20.3,7.1 20.3,17 -0.4,11.7 -7.9,24.8 -19.7,28.1 h -5.6 c -12.7,-0.7 -18.3,-15.8 -14.2,-26.6 4.4,-15.8 10.8,-33.9 27.2,-40.6 8.5,-3.9 19,3.2 21.2,10 z m 213.9,-8.4 c -7.1,-0.1 -4.4,10 -3.3,14.5 3.5,11.5 7.3,26.6 18.9,30 6.8,-1.2 4.4,-12.8 3.7,-16.5 -4.7,-10.9 -7.1,-23.3 -19.3,-28 z M 52,186 v 173.2 l 61.9,-5.7 z m 408,0 -61.9,167.5 61.9,5.7 z m -117.9,0.7 28.5,63.5 -10,4.4 -20,-43.3 c -6.1,3 -13,8.9 -14.6,-1.4 -1.3,-3.9 8.5,-5.1 8.1,-11.9 -0.3,-6.9 2.2,-12.2 8,-11.3 z m -212,27.4 c -2.4,5.1 -4.1,10.3 -2.7,15.9 1.7,8.8 13.5,6.4 15.6,-0.8 2.7,-5 3.9,-11.7 -0.5,-15.7 -4.1,-3.4 -8.9,-2.8 -12.4,0.6 z m 328.4,41.6 c -0.1,18.6 1.1,39.2 -9.7,55.3 -0.9,1.2 -2.2,1.9 -3.7,2.5 -5.8,-4.1 -3,-11.3 1.2,-15.5 1,7.3 5.5,-2.9 6.6,-5.6 1.3,-3.2 3.6,-17.7 -1,-10.2 0.7,4 -6.8,13.1 -9.3,8.1 -5,-14.4 0,-30.5 7,-43.5 5.7,-6.2 9.9,4.4 8.9,8.9 z M 59.93,245.5 c 0.59,0.1 1.34,1 2.48,3.6 v 61.1 c -7.3,-7 -4.47,-18 -4.45,-26.4 0,-8.4 1.65,-16.3 -1.28,-23.2 -4.62,-1.7 -5.79,-17 -3.17,-12.7 4.41,4.8 4.66,-2.7 6.42,-2.4 z m 178.77,7.6 c 8.1,4.5 13.8,14.4 10.8,23.6 -2.1,15.2 -27,21.1 -30.4,29.7 -1.2,3 25.4,1.6 30.2,1.6 0.5,4 1.5,10.7 -3.8,11.7 -14.5,-1.2 -29.9,-0.6 -45.1,-0.6 0.4,-11.2 7.4,-21.3 17,-26.8 6.9,-4.9 15.4,-9.3 18.1,-17.9 1.8,-4.5 -0.6,-9.3 -4.6,-11.5 -4.2,-2.9 -11,-2.3 -13.2,2.7 -2,3.8 -4.4,9.1 -8.7,9.6 -2.9,0.4 -9,0.5 -7.2,-4.9 1.4,-5.6 3.4,-11.5 8.2,-15.2 8.8,-6.3 19.9,-6.7 28.7,-2 z m 53.3,-1.4 c 6.8,2.2 12,7.9 14.3,14.6 6.1,14.7 5.5,33.1 -4.4,45.9 -4.5,4.8 -10.2,9.1 -17,9.1 -12.5,-0.1 -22.4,-11.1 -24.8,-22.8 -3.1,-13.4 -1.8,-28.7 6.9,-39.8 6.8,-7.6 16,-10.3 25,-7 z m 156.1,8.1 c -1.6,5.9 -3.3,13.4 -0.7,19.3 5.1,-2 5.4,-9.6 6.6,-14.5 0.9,-6.1 -3.5,-12.6 -5.9,-4.8 z m -176.2,21.1 c 0.6,10.5 1.7,22.8 9.7,28.2 4.9,1.8 9.7,-2.2 11.1,-6.7 1.9,-6.3 2.3,-12.9 2.4,-19.4 -0.2,-7.1 -1.5,-15 -6.7,-20.1 -12.2,-4.4 -15.3,10.9 -16.5,18 z M 434,266.8 V 328 l -4.4,6.7 v -42.3 c -4.6,7.5 -9.1,9.1 -6.1,-0.9 6.1,-7.1 4.8,-17.4 10.5,-24.7 z M 83.85,279 c 0.8,3.6 5.12,17.8 2.04,14.8 -1.97,-1.3 -3.62,-4.9 -3.41,-6.1 -1.55,-3 -2.96,-6.1 -4.21,-9.2 -2.95,4 -3.96,8.3 -3.14,13.4 0.2,-1.6 1.18,-2.3 3.39,-0.7 7.84,12.6 12.17,29.1 7.29,43.5 l -2.22,1.1 c -10.36,-5.8 -11.4,-19.4 -13.43,-30 -1.55,-12.3 -0.79,-24.7 2.3,-36.7 5.2,-3.8 9.16,5.4 11.39,9.9 z m -7.05,20.2 c -4.06,4.7 -2.26,12.8 -0.38,18.4 1.11,5.5 6.92,10.2 6.06,1.6 0.69,-11.1 -2.33,-12.7 -5.68,-20 z M 143.2,368.6 256,491.7 368.8,368.6 Z m -21.4,0.3 -53.84,4.9 64.24,41.1 c -2.6,-2.7 -4.9,-5.7 -7.1,-8.8 -5.2,-6.9 -10.5,-13.6 -18.9,-16.6 -8.75,-6.5 -4.2,-5.3 2.9,-2.6 -1,-1.8 -0.7,-2.6 0.1,-2.6 2.2,-0.2 8.4,4.2 9.8,6.3 l 24.7,31.6 65.1,41.7 z m 268.4,0 -42.4,46.3 c 6.4,-3.1 11.3,-8.5 17,-12.4 2.4,-1.4 3.7,-1.9 4.3,-1.9 2.1,0 -5.4,7.1 -7.7,10.3 -9.4,9.8 -16,23 -28.6,29.1 l 18.9,-24.5 c -2.3,1.3 -6,3.2 -8.2,4.1 l -40.3,44 74.5,-47.6 c 5.4,-6.7 1.9,-5.6 -5.7,-0.9 l -11.4,6 c 11.4,-13.7 30.8,-28.3 40,-35.6 9.2,-7.3 15.9,-9.8 8.2,-1.5 l -12.6,16 c 10,-7.6 0.9,3.9 -4.5,5.5 -0.7,1 -1.4,2 -2.2,2.9 L 444,373.8 Z M 236,385.8 v 43.4 h -13.4 v -30 c -5,-1.4 -10.4,1.7 -15.3,-0.3 -3.8,-2.9 1,-6.8 4.5,-5.9 3.3,-0.1 7.6,0.2 9.3,-3.2 4.4,-4.5 9.6,-4.4 14.9,-4 z m 29,0.5 c 12.1,1.2 24.2,0.6 36.6,0.6 1.5,3 0.8,7.8 -3.3,7.9 -7.7,0.3 -21,-1.6 -25.9,0.6 -8.2,10.5 5.7,3.8 11.4,5.2 7,1.1 15,2.9 19.1,9.2 2.1,3.1 2.7,7.3 0.7,10.7 -5.8,6.8 -17,11.5 -25.3,10.9 -7.3,-0.6 -15.6,-1.1 -20.6,-7.1 -6.4,-10.6 10.5,-6.7 12.2,-3.2 6,5.3 20.3,1.9 20.7,-4.7 0.6,-4.2 -2.1,-6.3 -6.9,-7.8 -4.8,-1.5 -12.6,1 -17.3,1.8 -4.7,0.8 -9.6,0.5 -9,-4.4 0.8,-4.2 2.7,-8.1 2.7,-12.5 0.1,-3 1.7,-7 4.9,-7.2 z m 133.5,5 c -0.2,-0.2 -7,5.8 -9.9,8.1 l -15.8,13.1 c 10.6,-6.5 19.3,-12 25.7,-21.2 z m -247,14.2 c 2.4,0 7.5,4.6 9.4,7 l 26.1,31.1 c -7.7,-2.1 -13.3,-7.1 -17.6,-13.7 -6.5,-7.3 -11.3,-16.6 -21.2,-19.6 -9,-5 -5.2,-6.4 2.1,-2.2 -0.3,-1.9 0.2,-2.6 1.2,-2.6 z"
         fill-opacity="1"
         id="path1-883"
         style="fill-opacity:1;fill-rule:nonzero" /></g><g
       id="d12"
       transform="matrix(1.222,0,0,1.222,-616.96,-74.902)"
       style="display:inline"><path
         d="M 907.72,195.31 837.23,98.257 723.18,61.287 v 92.663 l 96.38,70.02 z m -91.46,-28.4 a 19.735,19.735 0 0 1 -3.01,6.6 16.563,16.563 0 0 1 -11.92,6.86 q -7.55,0.92 -15.73,-5.06 -8.18,-5.97 -9.6,-13.43 a 16.563,16.563 0 0 1 2.93,-13.42 19.747,19.747 0 0 1 5.37,-4.86 q 3.43,-2.21 9.03,-1.58 a 18.757,18.757 0 0 1 -1.72,-10.42 21.082,21.082 0 0 1 4.03,-9.8 19.246,19.246 0 0 1 13.67,-7.99 q 8.63,-1.11 17.78,5.57 9.14,6.68 10.32,14.95 a 20.033,20.033 0 0 1 -3.82,15.21 20.772,20.772 0 0 1 -8.15,6.79 16.312,16.312 0 0 1 -10.17,1.19 q 2.04,5.47 0.99,9.39 z m -10.73,-8.29 a 8.252,8.252 0 0 1 -1.72,6.19 8.907,8.907 0 0 1 -15.67,-3.69 8.562,8.562 0 0 1 1.91,-6.36 8.347,8.347 0 0 1 5.33,-3.58 8.252,8.252 0 0 1 6.45,1.82 8.347,8.347 0 0 1 3.76,5.63 z m 9.54,-11.77 A 10.732,10.732 0 0 1 803.6,138.5 q -0.55,-3.7 2.5,-7.89 a 10.851,10.851 0 0 1 6.65,-4.77 10.732,10.732 0 0 1 11.55,8.43 10.851,10.851 0 0 1 -2.47,7.78 q -2.95,4.19 -6.65,4.8 z m -110.97,7.1 V 61.287 l -114.06,36.97 -70.48,97.053 88.16,28.62 z m -112.66,-21.8 37.9,-26.52 a 31.73,31.73 0 0 1 5.05,12.66 q 1.55,7.16 -2.79,19.42 a 98.304,98.304 0 0 0 -4.34,14.52 13.904,13.904 0 0 0 2.16,10.31 10.732,10.732 0 0 0 6.03,4.48 8.347,8.347 0 0 0 7.16,-1.58 q 4.96,-3.47 4.16,-8.43 a 22.418,22.418 0 0 0 -3.58,-7.64 l 10.58,-7.4 q 4.67,7.25 5.42,13.2 1.45,11.33 -9.68,19.08 -8.79,6.16 -17.38,4.92 -8.6,-1.24 -14.22,-9.25 a 21.237,21.237 0 0 1 -3.97,-13.48 44.513,44.513 0 0 1 3.11,-12.57 l 2.2,-6.14 q 2.06,-5.76 2.66,-8.12 a 15.025,15.025 0 0 0 0.43,-4.77 l -24.16,16.91 z m 64.7,215.4 h 115 l 35.51,-109.37 -93.01,-67.59 -93.01,67.59 z m 89.27,-95.07 a 8.347,8.347 0 0 0 -6.8,-2.84 q -6.06,0 -8.24,4.52 a 22.382,22.382 0 0 0 -1.49,8.35 h -12.86 q 0.33,-8.62 3.13,-13.93 5.32,-10.11 18.89,-10.11 10.73,0 17.06,5.96 6.33,5.96 6.24,15.63 a 21.25,21.25 0 0 1 -4.49,13.32 44.585,44.585 0 0 1 -9.66,8.62 l -5.31,3.77 q -5,3.58 -6.84,5.13 a 15,15 0 0 0 -3.1,3.68 h 29.49 v 11.69 h -46.2 A 31.73,31.73 0 0 1 718.35,293 q 2.84,-6.75 13.41,-14.31 a 98.602,98.602 0 0 0 11.93,-9.41 13.916,13.916 0 0 0 4.15,-9.68 10.732,10.732 0 0 0 -2.43,-7.13 z m -79.61,-1.81 a 58.536,58.536 0 0 0 8.78,-0.84 12.377,12.377 0 0 0 6.51,-3.58 11.686,11.686 0 0 0 2.6,-4.84 11.125,11.125 0 0 0 0.51,-2.7 h 11.09 v 67.54 H 681.68 V 259.69 H 665.8 v -9.04 z m -11.78,115.96 -54.44,75.05 114.06,36.97 114.05,-36.97 -54.43,-75.05 z m 77.27,83.8 q -5.64,7.23 -17.52,7.22 -12.76,0 -18.82,-10.68 -4.71,-8.34 -4.71,-21.46 a 97.78,97.78 0 0 1 0.66,-12.58 38.444,38.444 0 0 1 4.52,-14.31 23.121,23.121 0 0 1 7.57,-7.88 20.414,20.414 0 0 1 11.2,-2.98 q 9.41,0 15,4.78 a 18.328,18.328 0 0 1 6.28,12.83 h -13.16 a 6.773,6.773 0 0 0 -1.25,-3.58 7.286,7.286 0 0 0 -6.48,-3.17 q -6.47,0 -9.22,7.26 a 45.062,45.062 0 0 0 -2.05,11.83 14.905,14.905 0 0 1 5.73,-4.28 20.975,20.975 0 0 1 22.19,4.77 21.833,21.833 0 0 1 5.74,15.61 26.34,26.34 0 0 1 -5.64,16.61 z m -10.73,-24.61 q 2.88,3.15 2.88,9.06 a 13.868,13.868 0 0 1 -2.54,8.65 8.275,8.275 0 0 1 -6.96,3.32 9.36,9.36 0 0 1 -7.46,-3.44 13.248,13.248 0 0 1 -2.86,-8.89 q 0,-6.75 3.91,-9.77 a 9.456,9.456 0 0 1 5.97,-2.05 9.241,9.241 0 0 1 7.13,3.11 z m 119.14,-112.21 27.88,8.35 -4.77,16.16 z m -14.31,-71.54 -36.81,113.28 54.49,75 70.48,-97.02 V 213.46 Z m 66.08,86.95 -13.93,-4.16 -7.66,25.61 -11.11,-3.31 -32.2,-35.53 4.27,-14.3 40.44,12.08 2.18,-7.33 9.96,2.97 -2.19,7.32 13.93,4.17 z M 601.71,242.07 513.55,213.45 v 119.94 l 70.48,97.02 54.49,-75 z m -71.62,58.13 44.43,-14 -4.77,-15.14 8.62,-2.72 a 58.536,58.536 0 0 0 3.44,8.12 12.377,12.377 0 0 0 5.33,5.14 11.686,11.686 0 0 0 5.4,1.02 11.137,11.137 0 0 0 2.73,-0.32 l 3.33,10.58 -64.4,20.27 z m 18.47,58.6 -4.09,-12.98 44.43,-14 -4.77,-15.14 8.62,-2.72 a 58.68,58.68 0 0 0 3.44,8.12 12.365,12.365 0 0 0 5.33,5.14 11.65,11.65 0 0 0 5.4,1.03 11.102,11.102 0 0 0 2.73,-0.33 l 3.33,10.58 z"
         fill="#ffffff"
         fill-opacity="1"
         id="path1-0" /></g><g
       id="d10"
       transform="matrix(1.1087,0,0,1.1087,699.59,-139.7)"
       style="display:inline"><path
         d="m -281.52,351.24 -109.98,51.14 0.22,183.38 211.29,-219.41 -86.99,-21.81 z m -12.73,108.63 -5.95,14.7 -48.6,-8.96 5,-12.83 a 141.31,141.31 0 0 0 13.51,-11.36 167.18,167.18 0 0 0 16.57,-17.51 170.48,170.48 0 0 0 12.6,-17.96 115.61,115.61 0 0 0 9.52,-17.97 l 14.07,2.51 q -9.37,22.33 -30.36,44.43 -13.3,13.64 -20.65,18.63 z M -535.4,344.33 -620.11,366.1 -410.53,586 V 402.38 l -109.94,-51.14 z m 19.15,50.86 a 28.72,28.72 0 0 1 24.27,6.8 53.052,53.052 0 0 1 11.23,14.19 l -13.08,2.67 a 28.542,28.542 0 0 0 -5.39,-7.37 q -5.19,-4.88 -11.26,-3.86 l -0.49,0.1 a 6.458,6.458 0 0 0 -5.16,4.45 c -0.86,2.38 -0.24,5.55 1.79,9.37 q 4.09,7.6 10.81,9.03 a 23.785,23.785 0 0 0 8.57,-0.21 l 1.86,-0.34 5.8,10.82 q -6.4,1.43 -8.23,3.28 -3.21,3.14 0.42,9.93 a 17.042,17.042 0 0 0 6.09,6.7 10.406,10.406 0 0 0 7.39,1.53 l 0.41,-0.1 q 4.76,-0.96 5.08,-4.76 c 0.26,-2.57 -0.65,-5.74 -2.74,-9.51 l 12.38,-2.55 a 49.247,49.247 0 0 1 4.1,11.23 19.956,19.956 0 0 1 -0.64,9.38 11.702,11.702 0 0 1 -3.96,5.41 19.575,19.575 0 0 1 -8.03,3.24 l -1.19,0.21 a 27.971,27.971 0 0 1 -17.49,-2.7 32.193,32.193 0 0 1 -14.13,-14.09 q -3.63,-6.79 -2.61,-12.19 a 8.396,8.396 0 0 1 2.52,-4.95 h -0.1 q -1.84,0.31 -7.04,-2.49 a 32.11,32.11 0 0 1 -12.91,-13.6 q -5.25,-9.76 -3.28,-18.39 1.96,-8.64 13.67,-11 z m -113.56,-46.32 108.78,-116.31 a 7.135,7.135 0 0 1 1.43,0 h 0.15 q 3.14,0.34 2.84,3.71 a 19.36,19.36 0 0 1 -3.29,8.1 39.376,39.376 0 0 1 -9.73,10.4 q -3.91,2.94 -15.04,9.52 -12.8,7.5 -19.55,14.77 a 92.535,92.535 0 0 0 -11.52,14.48 l 32.91,3.76 8.18,-12.96 -20.96,-2.38 a 36.415,36.415 0 0 1 4.75,-3.83 q 2.38,-1.61 8.45,-5.13 l 6.42,-3.74 a 92.975,92.975 0 0 0 12.9,-8.78 61.472,61.472 0 0 0 12.51,-14.41 q 6.84,-10.85 6.5,-17.96 c -0.19,-3.95 -2.11,-6.43 -5.69,-7.51 l 79.8,-85.16 -102.1,179.58 -5.7,10.06 z m 367.24,-71.98 q -3.82,-5.46 -3.76,-8.51 c 0,-2.04 1.19,-3.2 3.57,-3.45 h 0.57 a 11.892,11.892 0 0 1 6.91,2.25 29.85,29.85 0 0 1 7.84,8.05 q 3.68,5.28 3.7,8.39 c 0,2.1 -1.18,3.26 -3.49,3.57 h -0.59 a 11.75,11.75 0 0 1 -6.96,-2.38 29.79,29.79 0 0 1 -7.79,-7.88 z m -109.41,-141.52 83.95,89.64 h -1.19 c -0.38,0 -0.98,0 -1.47,0.1 q -7.82,0.89 -8.32,6.86 -0.5,5.97 5.03,13.75 a 53.778,53.778 0 0 0 6.37,7.37 37.901,37.901 0 0 0 10.15,6.9 q -2.12,2.89 -0.7,7.98 a 37.283,37.283 0 0 0 5.61,11.1 55.122,55.122 0 0 0 15.22,14.8 q 8.1,5.27 16.07,4.94 0.81,0 1.62,-0.13 8.77,-0.99 9.22,-7.87 a 16.114,16.114 0 0 0 -0.46,-4.86 l 58.69,62.69 -91.57,-22.94 -6.1,-10.7 z m 98.22,104.93 2.45,2.61 c 0.45,0.57 0.9,1.19 1.35,1.79 1.81,2.59 2.73,4.76 2.73,6.53 0,1.77 -1.04,2.78 -3.13,3.02 h -0.51 a 10.346,10.346 0 0 1 -6.08,-1.95 22.596,22.596 0 0 1 -6.18,-6.14 c -1.98,-2.83 -2.94,-5.1 -2.88,-6.81 0.1,-1.72 1.12,-2.7 3.19,-2.94 h 0.52 a 10.263,10.263 0 0 1 6,1.88 19.147,19.147 0 0 1 2.54,2.01 z M -401.01,126 l -118.53,205.03 118.53,55.05 118.6,-55.05 z m -1.19,208.46 q -17.53,0 -24.58,-12.27 -7.06,-12.27 -7.06,-34.99 0,-22.71 7.06,-35.05 7.05,-12.33 24.58,-12.34 17.53,0 24.58,12.33 7.05,12.34 7.05,35.05 0,22.71 -7.05,34.99 -7.05,12.27 -24.58,12.28 z m 10.53,-71.8 q 2.5,7.96 2.5,24.54 0,15.82 -2.5,24.2 -2.49,8.39 -10.53,8.33 -8.04,0 -10.63,-8.33 -2.6,-8.32 -2.6,-24.2 0,-16.58 2.6,-24.54 2.59,-7.97 10.63,-7.97 8.01,0 10.51,7.95 z"
         fill="#ffffff"
         fill-opacity="1"
         id="path1-9" /></g><g
       id="d8"
       transform="matrix(1.1493,0,0,1.1493,383.72,-392.06)"
       style="display:inline"><path
         d="m -112,341.12 -178.1,306.7 H 66.1 Z M -137.85,353.76 -296,468.2 v 157.91 z m 51.69,0 L 72,626.11 V 468.2 Z m -132.51,90.02 v 21.79 l -8.49,9.68 V 458.3 c -2.77,3.24 -5.69,6.37 -8.38,9.67 3.53,0.29 2.48,5.43 2.2,7.75 -1.74,9.54 -8.15,17.57 -13.4,24.79 -1.94,2.54 -3.94,5.07 -6.01,7.51 -4.65,3.4 -8.49,4.39 -10.77,-1.47 0.29,-7.8 3.84,-15.22 8.04,-20.96 l 5.29,-7.92 c 0,2.46 0.1,4.97 -0.1,7.4 -2.34,4.35 -6.77,9.46 -5.76,14.61 7.76,0.88 12.22,-10.86 14.52,-16.58 0.84,-2.76 2.11,-5.46 -1.41,-5.43 v -7.27 z m 212.13,1.21 44.85,54.46 v 7.27 L 8.01,470.41 v 8.47 l -6.06,-7.26 c -0.16,-4.15 -1.43,-8.38 -2.43,-12.11 -1.86,-2.93 -3.96,-5.7 -6.06,-8.47 z m -105.39,62.84 c 8.37,0 14.73,1.53 19.09,4.59 4.35,3.02 6.53,7.47 6.53,13.34 0,3.92 -1.08,7.2 -3.24,9.82 -2.13,2.63 -5.3,4.58 -9.5,5.84 4.69,1.3 8.23,3.42 10.61,6.35 2.41,2.9 3.61,6.58 3.61,11.03 0,6.85 -2.28,12.04 -6.85,15.57 -4.54,3.49 -11.29,5.23 -20.25,5.23 -8.99,0 -15.78,-1.75 -20.39,-5.23 -4.57,-3.53 -6.85,-8.72 -6.85,-15.57 0,-4.45 1.19,-8.12 3.57,-11.03 2.4,-2.93 5.96,-5.05 10.65,-6.35 -4.2,-1.26 -7.36,-3.21 -9.5,-5.84 -2.13,-2.62 -3.19,-5.9 -3.19,-9.82 0,-5.83 2.18,-10.28 6.53,-13.34 4.35,-3.06 10.75,-4.59 19.18,-4.59 z m 0,11.21 c -2.84,0 -5.04,0.74 -6.58,2.23 -1.51,1.48 -2.27,3.58 -2.27,6.3 0,2.75 0.76,4.86 2.27,6.35 1.54,1.48 3.74,2.22 6.58,2.22 2.78,0 4.93,-0.74 6.44,-2.22 1.51,-1.49 2.27,-3.6 2.27,-6.35 0,-2.75 -0.76,-4.85 -2.27,-6.3 -1.51,-1.49 -3.66,-2.23 -6.44,-2.23 z m 0,28.26 c -3.34,0 -5.9,0.92 -7.69,2.74 -1.79,1.82 -2.69,4.43 -2.69,7.83 0,3.4 0.9,6.01 2.69,7.83 1.79,1.79 4.35,2.69 7.69,2.69 3.3,0 5.84,-0.9 7.6,-2.69 1.76,-1.83 2.64,-4.44 2.64,-7.83 0,-3.43 -0.88,-6.04 -2.64,-7.83 -1.76,-1.83 -4.3,-2.74 -7.6,-2.74 z M -279.3,663.82 -112,784.88 55.3,663.82 Z m 139.42,23.23 h 54.55 v 4.84 c -14.41,5.95 -21.58,12.9 -27.88,25.42 h -15.76 c 7.1,-13.8 14.54,-17.71 26.67,-25.42 h -37.58 z"
         fill="#ffffff"
         fill-opacity="1"
         id="path1-7" /></g><g
       id="d6"
       transform="matrix(1.226,0,0,1.226,299.14,398.44)"
       style="display:inline"><path
         d="m -36.3,-324.99 c -6.17,0 -12.35,1.38 -17.13,4.15 l -152.76,88.37 c -9.57,5.53 -9.57,14.29 0,19.82 l 152.76,88.36 c 9.57,5.54 24.7,5.54 34.27,0 l 152.75,-88.36 c 9.57,-5.53 9.57,-14.29 0,-19.82 l -152.75,-88.37 c -4.79,-2.77 -10.96,-4.15 -17.14,-4.15 z m -17.01,42.51 22.84,14.27 c -6.74,1.01 -12.58,2.28 -17.51,3.82 -4.99,1.5 -9.27,3.33 -12.87,5.49 -7.72,4.63 -11.09,9.9 -10.1,15.79 0.93,5.86 6.22,12.25 15.87,19.16 0.26,-3.46 1.46,-6.65 3.59,-9.55 2.08,-2.94 5.16,-5.63 9.25,-8.08 10.28,-6.17 22.26,-8.83 35.9305,-7.98 13.73,0.82 26.5695,4.97 38.5405,12.45 13.24,8.28 20.329,17.03 21.279,26.26 0.9,9.19 -4.58,17.34 -16.43,24.45 -13.07,7.84 -28.5895,10.54 -46.5895,8.09 -18.0005,-2.51 -36.9605,-9.99 -56.8805,-22.43 -20.409,-12.76 -32.259,-25.28 -35.54,-37.56 -3.3,-12.35 2.341,-22.9 16.931,-31.66 4.63,-2.77 9.56,-5.19 14.79,-7.25 5.24,-2.06 10.87,-3.82 16.899,-5.27 z m 38.68,53.23 c -4.17,0 -7.97,1.02 -11.399,3.08 -4.541,2.72 -6.13,5.91 -4.78,9.56 1.34,3.58 5.63,7.64 12.85,12.15 7.23,4.52 13.7795,7.24 19.6695,8.17 5.87,0.86 11.0805,-0.1 15.6105,-2.78 4.58,-2.75 6.2,-5.92 4.86,-9.51 -1.35,-3.65 -5.64,-7.73 -12.8605,-12.24 -7.23,-4.52 -13.78,-7.21 -19.6595,-8.08 a 27.826,27.826 0 0 0 -4.291,-0.35 z m 158.5,33.31 c -1.94,0.1 -4.22,0.86 -6.96,2.42 l -146.929,84.84 c -9.57,5.53 -17.14,18.637 -17.14,29.687 v 157.7 c 0,11.05 7.57,15.42 17.14,9.89 L 136.91,3.7569 c 9.57,-5.53 17.14,-18.6399 17.14,-29.6899 V -183.63 c -2.5,-8.05 -5.23,-12.49 -10.18,-12.31 z m -359.77,0.48 c -6.22,0 -10.03,5.33 -10.15,11.83 v 157.697 c 0,11.05 7.57,24.1599 17.14,29.6899 L -61.98,88.597 c 9.57,5.53 17.14,1.16 17.14,-9.89 v -157.7 c 0,-11.05 -7.57,-24.157 -17.14,-29.687 l -146.93,-84.85 c -2.57,-1.33 -4.91,-1.93 -6.99,-1.93 z m 40.1,52.23 68.11,40.87 v 25.287 l -46.26,-27.757 v 20.637 a 43.279,43.279 0 0 1 6.26,2.15 c 2.14,0.86 4.34,1.98 6.62,3.35 12.95,7.77 23.04,17.9 30.25,30.38 7.21,12.43 10.82,25.92 10.82,40.4499 0,14.42 -3.94,23.3401 -11.81,26.7801 -7.83,3.46 -18.72,1.01 -32.67,-7.36 -6.03,-3.6201 -12.01,-7.9501 -17.94,-13.0001 -5.88,-4.96 -11.74,-10.6799 -17.58,-17.1599 v -27.07 c 5.79,7.64 11.27,14.06 16.44,19.25 5.22,5.21 10.13,9.2 14.73,11.96 6.65,3.99 11.87,5.0899 15.66,3.32 3.84,-1.8 5.77,-6.19 5.77,-13.16 0,-7.03 -1.93,-13.72 -5.77,-20.08 -3.79,-6.33 -9.01,-11.48 -15.66,-15.47 a 56.585,56.585 0 0 0 -12.59,-5.59 c -4.46,-1.43 -9.26,-2.34 -14.38,-2.73 z m 270.05,5.73 v 85.807 l 13.75,-8.25 v 25.41 l -13.75,8.26 V -1.5031 L 70.74,12.597 v -24.77 L 28,13.467 v -30.06 L 66.611,-120.92 Z m -23.51,42.977 -27.24,73.28 27.24,-16.35 z"
         fill="#ffffff"
         fill-opacity="1"
         id="path1-2-5" /></g><g
       id="d4"
       transform="matrix(1.1041,0,0,1.1041,-79.542,384.18)"
       style="display:inline"><path
         d="m 282.11,-176.76 17.07,-29.46 v 29.46 z M 533.95,83 H 72.05 L 303,-317 Z M 175.32,28.17 216.53,5.22 l -6.7,-12.07 -59.7,33.3 5.46,9.81 a 11.278,11.278 0 0 1 2.64,-0.88 11.822,11.822 0 0 1 5.57,-0.1 12.534,12.534 0 0 1 6.34,4.01 59.3,59.3 0 0 1 5.07,7.35 l 7.99,-4.45 z m 144.75,-204.93 h -7.74 v -42.73 h -15.09 l -25.14,41.51 v 11.75 h 27.07 v 14.72 h 13.16 v -14.72 h 7.74 v -10.52 z M 451.69,35.69 q 6.82,-11.93 0.62,-21.74 -3.26,-5.13 -10.68,-9.74 l -6.48,11.34 a 22.677,22.677 0 0 1 6.53,5.48 q 2.88,4.19 -0.17,9.52 a 8.453,8.453 0 0 1 -5.91,4.55 10.868,10.868 0 0 1 -7.47,-1.5 14.08,14.08 0 0 1 -6.43,-8.51 99.728,99.728 0 0 1 -2.3,-15.17 q -1.31,-13.09 -5.82,-18.98 a 32.144,32.144 0 0 0 -10.09,-9.42 l -23.28,40.71 10.27,5.88 14.83,-25.92 a 15.203,15.203 0 0 1 1.68,4.58 q 0.47,2.42 1.06,8.59 l 0.64,6.57 a 45.149,45.149 0 0 0 2.72,12.82 21.518,21.518 0 0 0 9.45,10.64 q 8.6,4.91 17.01,2.33 8.4,-2.59 13.81,-12.02 z"
         fill="#ffffff"
         fill-opacity="1"
         id="path1-03" /></g></g></svg>
