<?xml version="1.0" encoding="UTF-8" standalone="no"?>
<!-- Created with Inkscape (http://www.inkscape.org/) -->

<svg
   width="32"
   height="32"
   viewBox="0 0 8.4665 8.4666"
   version="1.1"
   id="svg5"
   inkscape:version="1.4 (e7c3feb1, 2024-10-09)"
   sodipodi:docname="icon.svg"
   xml:space="preserve"
   inkscape:export-filename="logo.png"
   inkscape:export-xdpi="300"
   inkscape:export-ydpi="300"
   xmlns:inkscape="http://www.inkscape.org/namespaces/inkscape"
   xmlns:sodipodi="http://sodipodi.sourceforge.net/DTD/sodipodi-0.dtd"
   xmlns="http://www.w3.org/2000/svg"
   xmlns:svg="http://www.w3.org/2000/svg"><sodipodi:namedview
     id="namedview7"
     pagecolor="#888888"
     bordercolor="#000000"
     borderopacity="1"
     inkscape:showpageshadow="true"
     inkscape:pageopacity="0"
     inkscape:pagecheckerboard="false"
     inkscape:deskcolor="#ffffff"
     inkscape:document-units="mm"
     showgrid="false"
     inkscape:zoom="9.3744"
     inkscape:cx="33.709"
     inkscape:cy="26.988"
     inkscape:current-layer="svg5"><inkscape:page
       x="0"
       y="0"
       width="8.4665"
       height="8.4666"
       id="page2"
       margin="0"
       bleed="0" /></sodipodi:namedview><defs
     id="defs2"><linearGradient
       id="swatch7"
       inkscape:swatch="solid"><stop
         style="stop-color:#ffffff;stop-opacity:1;"
         offset="0"
         id="stop7" /></linearGradient></defs><path
     d="M 1.6695,0.30031 C 1.5405,0.30285 1.4026,0.3456 1.3053,0.39205 1.0816,0.5005 0.85515,0.70467 0.67359,0.95116 0.49202,1.1977 0.3551,1.4858 0.29661,1.7507 0.23846,2.0141 0.25928,2.2468 0.36052,2.4075 L 1.8988,4.4406 C 1.8933,4.4118 1.8881,4.3827 1.8838,4.3533 1.8044,3.8305 1.9003,3.2409 2.1831,2.6979 2.466,2.1548 2.8848,1.756 3.3433,1.5506 3.503,1.4791 3.6686,1.4313 3.8346,1.41 L 1.9362,0.36759 C 1.8493,0.32317 1.7604,0.30152 1.6695,0.30031 Z M 4.0526,1.7139 C 3.8624,1.7115 3.6648,1.7557 3.4694,1.8431 3.0785,2.0182 2.704,2.3694 2.4506,2.8559 2.1974,3.3423 2.116,3.8665 2.1836,4.3123 2.251,4.758 2.4618,5.1191 2.7942,5.3154 2.9874,5.4294 3.2032,5.4767 3.4266,5.462 3.3369,5.2426 3.2664,5.0194 3.2569,4.7839 3.4346,4.4394 3.6157,4.0949 3.8725,3.7505 4.2684,3.6259 4.6855,3.6723 5.167,3.692 5.2311,3.4056 5.2417,3.1229 5.2029,2.8664 5.1352,2.4207 4.9246,2.0594 4.5922,1.8633 4.4259,1.7652 4.2429,1.7163 4.0526,1.7139 Z m 1.2331,2.2824 -1.1642,0.067 0.3168,1.0665 1.143,-0.064 C 5.5392,4.6977 5.4047,4.3485 5.2857,3.9963 Z M 3.8943,4.2583 C 3.7575,4.4268 3.6436,4.6088 3.5874,4.8255 3.6179,5.157 3.6586,5.4874 3.8322,5.803 L 4.1494,5.2833 Z m 2.997,1.0341 C 6.4668,5.4867 6.1375,5.6968 5.8075,5.9067 L 7.0314,6.8674 8.2019,6.033 C 7.81,5.7711 7.3798,5.522 6.8913,5.2924 Z M 5.4706,5.3987 4.3992,5.4491 4.0813,5.9617 C 4.4211,5.9445 4.7425,5.9736 5.1114,5.8839 5.2903,5.7221 5.3671,5.5603 5.4706,5.3987 Z M 5.7274,6.237 C 5.6404,6.5679 5.6364,6.9155 5.6284,7.2622 5.9251,7.6707 6.3251,7.8932 6.697,8.1663 L 6.8464,7.0928 Z M 8.1831,6.3961 7.1657,7.1292 7.0126,8.1037 C 7.3479,7.9039 7.6649,7.6826 7.9201,7.3866 8.0626,7.0564 8.1183,6.7263 8.1831,6.3961 Z"
     fill-opacity="1"
     id="path1"
     style="fill:#ffffff;fill-opacity:1;stroke:none;stroke-width:0;stroke-opacity:1" /></svg>
